<mxfile host="Electron" modified="2025-03-12T08:24:57.408Z" agent="Mozilla/5.0 (Windows NT 10.0; Win64; x64) AppleWebKit/537.36 (KHTML, like Gecko) draw.io/24.6.4 Chrome/124.0.6367.207 Electron/30.0.6 Safari/537.36" etag="siNIv0PaNWZm99RMpETY" version="24.6.4" type="device" pages="5">
  <diagram id="g-S86iYrtktIrxo7AYTH" name="Anatomy">
    <mxGraphModel dx="3074" dy="1581" grid="0" gridSize="10" guides="0" tooltips="1" connect="1" arrows="1" fold="1" page="0" pageScale="1" pageWidth="827" pageHeight="1169" math="0" shadow="0">
      <root>
        <mxCell id="0" />
        <mxCell id="1" parent="0" />
        <mxCell id="hH0e-lF2d-azN_i3qHRE-1" value="&lt;p style=&quot;margin:0px;margin-top:4px;margin-left:10px;text-align:left;&quot;&gt;&lt;b&gt;Subject&lt;/b&gt;&lt;/p&gt;" style="html=1;shape=mxgraph.sysml.package;align=left;spacingLeft=5;verticalAlign=top;spacingTop=-3;labelX=70;html=1;overflow=fill;" vertex="1" parent="1">
          <mxGeometry x="-413" y="35" width="504" height="280" as="geometry" />
        </mxCell>
        <mxCell id="jjT3odZ4a-Fv744dsR9w-4" style="rounded=0;orthogonalLoop=1;jettySize=auto;html=1;exitX=1;exitY=0.3333333333333333;exitDx=0;exitDy=0;exitPerimeter=0;entryX=0;entryY=0.5;entryDx=0;entryDy=0;endArrow=none;endFill=0;" edge="1" parent="1" source="hH0e-lF2d-azN_i3qHRE-2" target="jjT3odZ4a-Fv744dsR9w-3">
          <mxGeometry relative="1" as="geometry" />
        </mxCell>
        <mxCell id="hH0e-lF2d-azN_i3qHRE-2" value="Actor" style="shape=umlActor;verticalLabelPosition=bottom;verticalAlign=top;html=1;outlineConnect=0;" vertex="1" parent="1">
          <mxGeometry x="-523" y="172" width="30" height="60" as="geometry" />
        </mxCell>
        <mxCell id="bmkizay5EXwJLKEaP1q8-1" value="Included Use Case" style="shape=ellipse;html=1;strokeWidth=3;fontStyle=1;whiteSpace=wrap;align=center;perimeter=ellipsePerimeter;" vertex="1" parent="1">
          <mxGeometry x="-149" y="80" width="120" height="60" as="geometry" />
        </mxCell>
        <mxCell id="bmkizay5EXwJLKEaP1q8-2" value="&amp;lt;&amp;lt;include&amp;gt;&amp;gt;" style="edgeStyle=none;html=1;endArrow=open;verticalAlign=bottom;dashed=1;labelBackgroundColor=none;rounded=0;entryX=1;entryY=0.5;entryDx=0;entryDy=0;" edge="1" parent="1" source="bmkizay5EXwJLKEaP1q8-1" target="jjT3odZ4a-Fv744dsR9w-3">
          <mxGeometry width="160" relative="1" as="geometry">
            <mxPoint x="-258" y="97" as="sourcePoint" />
            <mxPoint x="-73" y="264" as="targetPoint" />
          </mxGeometry>
        </mxCell>
        <mxCell id="QlcMH1ydCwkXVnllJwav-1" value="Extended Use Case" style="shape=ellipse;html=1;strokeWidth=3;fontStyle=1;whiteSpace=wrap;align=center;perimeter=ellipsePerimeter;" vertex="1" parent="1">
          <mxGeometry x="-55.02999999999997" y="207" width="120" height="60" as="geometry" />
        </mxCell>
        <mxCell id="QlcMH1ydCwkXVnllJwav-2" value="Condition: {boolean expression}&#xa;extension point: p1" style="shape=note;size=15;spacingLeft=5;align=left;whiteSpace=wrap;fontFamily=Helvetica;fontSize=11;fontColor=default;labelBackgroundColor=default;" vertex="1" parent="1">
          <mxGeometry x="-170" y="166" width="173.03" height="40" as="geometry" />
        </mxCell>
        <mxCell id="QlcMH1ydCwkXVnllJwav-3" value="&amp;lt;&amp;lt;extend&amp;gt;&amp;gt;" style="align=right;html=1;verticalAlign=bottom;rounded=0;labelBackgroundColor=none;endArrow=open;endSize=12;dashed=1;strokeColor=default;fontFamily=Helvetica;fontSize=11;fontColor=default;entryX=1;entryY=0.5;entryDx=0;entryDy=0;entryPerimeter=0;exitX=0;exitY=0.5;exitDx=0;exitDy=0;" edge="1" parent="1" source="QlcMH1ydCwkXVnllJwav-1" target="jjT3odZ4a-Fv744dsR9w-1">
          <mxGeometry relative="1" as="geometry">
            <mxPoint x="-219" y="237" as="targetPoint" />
            <mxPoint x="-68" y="239" as="sourcePoint" />
          </mxGeometry>
        </mxCell>
        <mxCell id="QlcMH1ydCwkXVnllJwav-4" value="" style="edgeStyle=none;html=1;endArrow=none;rounded=0;labelBackgroundColor=none;dashed=1;exitX=0.5;exitY=1;strokeColor=default;align=center;verticalAlign=middle;fontFamily=Helvetica;fontSize=11;fontColor=default;" edge="1" parent="1" source="QlcMH1ydCwkXVnllJwav-2">
          <mxGeometry relative="1" as="geometry">
            <mxPoint x="-118.02999999999997" y="239" as="targetPoint" />
          </mxGeometry>
        </mxCell>
        <mxCell id="jjT3odZ4a-Fv744dsR9w-1" value="&lt;br&gt;extension points&lt;br&gt;print_receipt" style="html=1;shape=mxgraph.sysml.useCaseExtPt;whiteSpace=wrap;align=center;" vertex="1" parent="1">
          <mxGeometry x="-379" y="197" width="160" height="80" as="geometry" />
        </mxCell>
        <mxCell id="jjT3odZ4a-Fv744dsR9w-2" value="Base Use Case" style="resizable=0;html=1;verticalAlign=middle;align=center;labelBackgroundColor=none;fontStyle=1;" connectable="0" vertex="1" parent="jjT3odZ4a-Fv744dsR9w-1">
          <mxGeometry x="80" y="17" as="geometry">
            <mxPoint x="-3" y="-1" as="offset" />
          </mxGeometry>
        </mxCell>
        <mxCell id="jjT3odZ4a-Fv744dsR9w-3" value="Base Use Case" style="shape=ellipse;html=1;strokeWidth=3;fontStyle=1;whiteSpace=wrap;align=center;perimeter=ellipsePerimeter;" vertex="1" parent="1">
          <mxGeometry x="-370" y="80" width="120" height="60" as="geometry" />
        </mxCell>
        <mxCell id="jjT3odZ4a-Fv744dsR9w-5" style="edgeStyle=none;shape=connector;rounded=0;orthogonalLoop=1;jettySize=auto;html=1;exitX=1;exitY=0.3333333333333333;exitDx=0;exitDy=0;exitPerimeter=0;entryX=0;entryY=0.5;entryDx=0;entryDy=0;entryPerimeter=0;strokeColor=default;align=center;verticalAlign=middle;fontFamily=Helvetica;fontSize=11;fontColor=default;labelBackgroundColor=default;endArrow=none;endFill=0;" edge="1" parent="1" source="hH0e-lF2d-azN_i3qHRE-2" target="jjT3odZ4a-Fv744dsR9w-1">
          <mxGeometry relative="1" as="geometry" />
        </mxCell>
        <mxCell id="jjT3odZ4a-Fv744dsR9w-7" value="Notes" parent="0" />
        <mxCell id="jjT3odZ4a-Fv744dsR9w-8" value="&lt;font style=&quot;font-size: 15px;&quot;&gt;&lt;span style=&quot;color: rgb(12, 13, 14); font-family: -apple-system, BlinkMacSystemFont, &amp;quot;Segoe UI Adjusted&amp;quot;, &amp;quot;Segoe UI&amp;quot;, &amp;quot;Liberation Sans&amp;quot;, sans-serif;&quot;&gt;&lt;b style=&quot;&quot;&gt;Summary&lt;/b&gt;&lt;/span&gt;&lt;/font&gt;&lt;div style=&quot;font-size: 15px;&quot;&gt;&lt;font style=&quot;font-size: 15px;&quot;&gt;&lt;span style=&quot;color: rgb(12, 13, 14); font-family: -apple-system, BlinkMacSystemFont, &amp;quot;Segoe UI Adjusted&amp;quot;, &amp;quot;Segoe UI&amp;quot;, &amp;quot;Liberation Sans&amp;quot;, sans-serif;&quot;&gt;&lt;b style=&quot;&quot;&gt;&lt;br&gt;&lt;/b&gt;&lt;/span&gt;UseCases are a means to capture the requirements of a system, i.e., what is the system supposed to do.&lt;/font&gt;&lt;div style=&quot;&quot;&gt;&lt;font style=&quot;font-size: 15px;&quot;&gt;Key concepts are:&lt;/font&gt;&lt;/div&gt;&lt;div style=&quot;&quot;&gt;&lt;ul&gt;&lt;li&gt;&lt;font style=&quot;font-size: 15px;&quot;&gt;Actor&lt;/font&gt;&lt;/li&gt;&lt;li&gt;&lt;font style=&quot;font-size: 15px;&quot;&gt;UseCase&lt;/font&gt;&lt;/li&gt;&lt;li&gt;&lt;font style=&quot;font-size: 15px;&quot;&gt;Subject&lt;/font&gt;&lt;/li&gt;&lt;/ul&gt;&lt;/div&gt;&lt;div&gt;&lt;br&gt;&lt;/div&gt;&lt;/div&gt;" style="shape=note;whiteSpace=wrap;html=1;backgroundOutline=1;fontColor=#000000;darkOpacity=0.05;fillColor=#FFF9B2;strokeColor=none;fillStyle=solid;direction=west;gradientDirection=north;gradientColor=#FFF2A1;shadow=1;size=20;pointerEvents=1;align=left;verticalAlign=top;" vertex="1" parent="jjT3odZ4a-Fv744dsR9w-7">
          <mxGeometry x="-421" y="-358" width="384" height="201" as="geometry" />
        </mxCell>
        <mxCell id="4pcHD-RXcwzhUH9Hluvu-1" value="&lt;div style=&quot;font-size: 15px;&quot;&gt;&lt;font style=&quot;font-size: 15px;&quot;&gt;&lt;span style=&quot;background-color: initial;&quot;&gt;Subject represents a system under&lt;/span&gt;&lt;br&gt;&lt;/font&gt;&lt;/div&gt;&lt;div style=&quot;font-size: 15px;&quot;&gt;&lt;font style=&quot;font-size: 15px;&quot;&gt;consideration to which the UseCase applies&lt;br&gt;&lt;/font&gt;&lt;/div&gt;&lt;div style=&quot;font-size: 15px;&quot;&gt;&lt;br&gt;&lt;/div&gt;" style="shape=note;whiteSpace=wrap;html=1;backgroundOutline=1;fontColor=#000000;darkOpacity=0.05;fillColor=#FFF9B2;strokeColor=none;fillStyle=solid;direction=west;gradientDirection=north;gradientColor=#FFF2A1;shadow=1;size=20;pointerEvents=1;align=left;verticalAlign=top;" vertex="1" parent="jjT3odZ4a-Fv744dsR9w-7">
          <mxGeometry x="-1415" y="208" width="314" height="468" as="geometry" />
        </mxCell>
        <mxCell id="4pcHD-RXcwzhUH9Hluvu-2" value="&lt;div&gt;&lt;span style=&quot;font-size: 15px; background-color: initial; color: rgb(12, 13, 14); font-family: -apple-system, BlinkMacSystemFont, &amp;quot;Segoe UI Adjusted&amp;quot;, &amp;quot;Segoe UI&amp;quot;, &amp;quot;Liberation Sans&amp;quot;, sans-serif;&quot;&gt;&lt;b&gt;Actor:&amp;nbsp;&lt;/b&gt;&lt;/span&gt;&lt;span style=&quot;font-size: 15px; background-color: initial;&quot;&gt;Users and any other systems that may interact with a subject&lt;/span&gt;&lt;br&gt;&lt;/div&gt;&lt;div&gt;&lt;br&gt;&lt;/div&gt;" style="shape=note;whiteSpace=wrap;html=1;backgroundOutline=1;fontColor=#000000;darkOpacity=0.05;fillColor=#FFF9B2;strokeColor=none;fillStyle=solid;direction=west;gradientDirection=north;gradientColor=#FFF2A1;shadow=1;size=20;pointerEvents=1;align=left;verticalAlign=top;" vertex="1" parent="jjT3odZ4a-Fv744dsR9w-7">
          <mxGeometry x="-719" y="255" width="250" height="73" as="geometry" />
        </mxCell>
        <mxCell id="4pcHD-RXcwzhUH9Hluvu-3" value="&lt;div&gt;&lt;div&gt;&lt;span style=&quot;font-size: 15px; background-color: initial;&quot;&gt;&lt;b&gt;UseCase&lt;/b&gt;&lt;/span&gt;&lt;/div&gt;&lt;div&gt;&lt;span style=&quot;font-size: 15px; background-color: initial;&quot;&gt;A specification of behavior.&amp;nbsp;A UseCase may apply to any number of subjects&lt;/span&gt;&lt;br&gt;&lt;/div&gt;&lt;/div&gt;&lt;div&gt;&lt;font style=&quot;font-size: 15px;&quot;&gt;&lt;br&gt;&lt;/font&gt;&lt;/div&gt;&lt;div&gt;&lt;font style=&quot;font-size: 15px;&quot;&gt;Can perform in collaboration with one or more Actors&lt;br&gt;&lt;/font&gt;&lt;/div&gt;&lt;div&gt;&lt;font style=&quot;font-size: 15px;&quot;&gt;&lt;br&gt;&lt;/font&gt;&lt;/div&gt;&lt;div&gt;&lt;font style=&quot;font-size: 15px;&quot;&gt;UseCases define the behaviors of the subject without reference to its internal structure&lt;br&gt;&lt;/font&gt;&lt;/div&gt;&lt;div&gt;&lt;font style=&quot;font-size: 15px;&quot;&gt;&lt;br&gt;&lt;/font&gt;&lt;/div&gt;&lt;div&gt;&lt;font style=&quot;font-size: 15px;&quot;&gt;&amp;nbsp;These Behaviors, involving interactions between the &lt;br/&gt;Actors and the subject, may result in changes to the state of the subject and communications with its environment&lt;br&gt;&lt;/font&gt;&lt;/div&gt;&lt;div&gt;&lt;font style=&quot;font-size: 15px;&quot;&gt;&lt;br&gt;&lt;/font&gt;&lt;/div&gt;&lt;div&gt;&lt;font style=&quot;font-size: 15px;&quot;&gt;A subject of a UseCase could be a system or any other element that may have behavior, such as a Component or Class&lt;br&gt;&lt;/font&gt;&lt;/div&gt;&lt;div&gt;&lt;font style=&quot;font-size: 15px;&quot;&gt;&lt;br&gt;&lt;/font&gt;&lt;/div&gt;&lt;div&gt;&lt;font style=&quot;font-size: 15px;&quot;&gt;When a UseCase applies to a subject, it specifies a set of behaviors&lt;br&gt;performed by that subject, which yields an observable result that is of value for Actors or other stakeholders of the&lt;br&gt;subject&lt;br&gt;&lt;/font&gt;&lt;/div&gt;&lt;div&gt;&lt;font style=&quot;font-size: 15px;&quot;&gt;&lt;br&gt;&lt;/font&gt;&lt;/div&gt;&lt;div&gt;&lt;font style=&quot;font-size: 15px;&quot;&gt;&lt;br&gt;&lt;/font&gt;&lt;/div&gt;&lt;div&gt;&lt;font style=&quot;font-size: 15px;&quot;&gt;&lt;br&gt;&lt;/font&gt;&lt;/div&gt;&lt;div&gt;&lt;br&gt;&lt;/div&gt;" style="shape=note;whiteSpace=wrap;html=1;backgroundOutline=1;fontColor=#000000;darkOpacity=0.05;fillColor=#FFF9B2;strokeColor=none;fillStyle=solid;direction=west;gradientDirection=north;gradientColor=#FFF2A1;shadow=1;size=20;pointerEvents=1;align=left;verticalAlign=top;" vertex="1" parent="jjT3odZ4a-Fv744dsR9w-7">
          <mxGeometry x="-2123" y="251" width="641" height="468" as="geometry" />
        </mxCell>
      </root>
    </mxGraphModel>
  </diagram>
  <diagram id="yajMlv5QYIEJ6sXzG-SL" name="Multiplicity">
    <mxGraphModel dx="955" dy="1373" grid="0" gridSize="10" guides="1" tooltips="1" connect="1" arrows="1" fold="1" page="0" pageScale="1" pageWidth="827" pageHeight="1169" math="0" shadow="0">
      <root>
        <mxCell id="0" />
        <mxCell id="1" parent="0" />
        <mxCell id="F31UKLQWYJVRU74wXNRm-1" value="&lt;p style=&quot;margin:0px;margin-top:4px;margin-left:10px;text-align:left;&quot;&gt;&lt;span style=&quot;font-weight: 700; text-align: center; text-wrap: wrap;&quot;&gt;Nuclear Missile System&lt;/span&gt;&lt;br&gt;&lt;/p&gt;" style="html=1;shape=mxgraph.sysml.package;align=left;spacingLeft=5;verticalAlign=top;spacingTop=-3;labelX=155.5;html=1;overflow=fill;" vertex="1" parent="1">
          <mxGeometry x="91" y="-141" width="205" height="412" as="geometry" />
        </mxCell>
        <mxCell id="F31UKLQWYJVRU74wXNRm-2" style="edgeStyle=none;shape=connector;rounded=0;orthogonalLoop=1;jettySize=auto;html=1;entryX=0;entryY=0.5;entryDx=0;entryDy=0;strokeColor=default;align=center;verticalAlign=middle;fontFamily=Helvetica;fontSize=11;fontColor=default;labelBackgroundColor=default;endArrow=none;endFill=0;" edge="1" parent="1" source="F31UKLQWYJVRU74wXNRm-3" target="F31UKLQWYJVRU74wXNRm-4">
          <mxGeometry relative="1" as="geometry" />
        </mxCell>
        <mxCell id="F31UKLQWYJVRU74wXNRm-12" value="1" style="edgeLabel;html=1;align=center;verticalAlign=middle;resizable=0;points=[];fontFamily=Helvetica;fontSize=11;fontColor=default;labelBackgroundColor=default;" vertex="1" connectable="0" parent="F31UKLQWYJVRU74wXNRm-2">
          <mxGeometry x="-0.5952" y="1" relative="1" as="geometry">
            <mxPoint x="-6" y="-1" as="offset" />
          </mxGeometry>
        </mxCell>
        <mxCell id="F31UKLQWYJVRU74wXNRm-13" value="1" style="edgeLabel;html=1;align=center;verticalAlign=middle;resizable=0;points=[];fontFamily=Helvetica;fontSize=11;fontColor=default;labelBackgroundColor=default;" vertex="1" connectable="0" parent="F31UKLQWYJVRU74wXNRm-2">
          <mxGeometry x="0.7201" relative="1" as="geometry">
            <mxPoint as="offset" />
          </mxGeometry>
        </mxCell>
        <mxCell id="F31UKLQWYJVRU74wXNRm-6" style="edgeStyle=none;shape=connector;rounded=0;orthogonalLoop=1;jettySize=auto;html=1;exitX=1;exitY=0.3333333333333333;exitDx=0;exitDy=0;exitPerimeter=0;entryX=0;entryY=0.5;entryDx=0;entryDy=0;strokeColor=default;align=center;verticalAlign=middle;fontFamily=Helvetica;fontSize=11;fontColor=default;labelBackgroundColor=default;endArrow=none;endFill=0;" edge="1" parent="1" source="F31UKLQWYJVRU74wXNRm-3" target="F31UKLQWYJVRU74wXNRm-5">
          <mxGeometry relative="1" as="geometry" />
        </mxCell>
        <mxCell id="F31UKLQWYJVRU74wXNRm-10" value="2" style="edgeLabel;html=1;align=center;verticalAlign=middle;resizable=0;points=[];fontFamily=Helvetica;fontSize=11;fontColor=default;labelBackgroundColor=default;" vertex="1" connectable="0" parent="F31UKLQWYJVRU74wXNRm-6">
          <mxGeometry x="-0.568" y="-2" relative="1" as="geometry">
            <mxPoint x="-8" y="3" as="offset" />
          </mxGeometry>
        </mxCell>
        <mxCell id="F31UKLQWYJVRU74wXNRm-11" value="1" style="edgeLabel;html=1;align=center;verticalAlign=middle;resizable=0;points=[];fontFamily=Helvetica;fontSize=11;fontColor=default;labelBackgroundColor=default;" vertex="1" connectable="0" parent="F31UKLQWYJVRU74wXNRm-6">
          <mxGeometry x="0.7171" y="-1" relative="1" as="geometry">
            <mxPoint x="1" y="-3" as="offset" />
          </mxGeometry>
        </mxCell>
        <mxCell id="F31UKLQWYJVRU74wXNRm-3" value="Commander" style="shape=umlActor;verticalLabelPosition=bottom;verticalAlign=top;html=1;outlineConnect=0;" vertex="1" parent="1">
          <mxGeometry x="26" y="133" width="30" height="60" as="geometry" />
        </mxCell>
        <mxCell id="F31UKLQWYJVRU74wXNRm-4" value="Launch Nuclear Missile" style="shape=ellipse;html=1;strokeWidth=3;fontStyle=1;whiteSpace=wrap;align=center;perimeter=ellipsePerimeter;" vertex="1" parent="1">
          <mxGeometry x="135" y="175" width="120" height="60" as="geometry" />
        </mxCell>
        <mxCell id="F31UKLQWYJVRU74wXNRm-5" value="Input Launch Code" style="shape=ellipse;html=1;strokeWidth=3;fontStyle=1;whiteSpace=wrap;align=center;perimeter=ellipsePerimeter;" vertex="1" parent="1">
          <mxGeometry x="133.5" y="73" width="120" height="60" as="geometry" />
        </mxCell>
        <mxCell id="F31UKLQWYJVRU74wXNRm-7" value="Nuclear Missile" style="shape=umlActor;verticalLabelPosition=bottom;verticalAlign=top;html=1;outlineConnect=0;" vertex="1" parent="1">
          <mxGeometry x="359" y="128" width="30" height="60" as="geometry" />
        </mxCell>
        <mxCell id="F31UKLQWYJVRU74wXNRm-9" style="edgeStyle=none;shape=connector;rounded=0;orthogonalLoop=1;jettySize=auto;html=1;exitX=1;exitY=0.5;exitDx=0;exitDy=0;entryX=0;entryY=0.3333333333333333;entryDx=0;entryDy=0;entryPerimeter=0;strokeColor=default;align=center;verticalAlign=middle;fontFamily=Helvetica;fontSize=11;fontColor=default;labelBackgroundColor=default;endArrow=none;endFill=0;" edge="1" parent="1" source="F31UKLQWYJVRU74wXNRm-4" target="F31UKLQWYJVRU74wXNRm-7">
          <mxGeometry relative="1" as="geometry" />
        </mxCell>
        <mxCell id="F31UKLQWYJVRU74wXNRm-14" value="1" style="edgeLabel;html=1;align=center;verticalAlign=middle;resizable=0;points=[];fontFamily=Helvetica;fontSize=11;fontColor=default;labelBackgroundColor=default;" vertex="1" connectable="0" parent="F31UKLQWYJVRU74wXNRm-9">
          <mxGeometry x="-0.7635" y="1" relative="1" as="geometry">
            <mxPoint as="offset" />
          </mxGeometry>
        </mxCell>
        <mxCell id="F31UKLQWYJVRU74wXNRm-15" value="1" style="edgeLabel;html=1;align=center;verticalAlign=middle;resizable=0;points=[];fontFamily=Helvetica;fontSize=11;fontColor=default;labelBackgroundColor=default;" vertex="1" connectable="0" parent="F31UKLQWYJVRU74wXNRm-9">
          <mxGeometry x="0.6888" y="1" relative="1" as="geometry">
            <mxPoint as="offset" />
          </mxGeometry>
        </mxCell>
        <mxCell id="GmVZUq_Jw8FA599wOGir-1" value="&lt;div&gt;&lt;span style=&quot;color: rgb(12, 13, 14); font-family: -apple-system, BlinkMacSystemFont, &amp;quot;Segoe UI Adjusted&amp;quot;, &amp;quot;Segoe UI&amp;quot;, &amp;quot;Liberation Sans&amp;quot;, sans-serif; background-color: initial;&quot;&gt;&lt;font style=&quot;font-size: 14px;&quot;&gt;1 at Actor end and 0 at Use Case end, means the actor may or may or not perform the use case&lt;/font&gt;&lt;/span&gt;&lt;br&gt;&lt;/div&gt;" style="shape=note;whiteSpace=wrap;html=1;backgroundOutline=1;fontColor=#000000;darkOpacity=0.05;fillColor=#FFF9B2;strokeColor=none;fillStyle=solid;direction=west;gradientDirection=north;gradientColor=#FFF2A1;shadow=1;size=20;pointerEvents=1;align=left;verticalAlign=top;" vertex="1" parent="1">
          <mxGeometry x="-271" y="-67" width="271" height="88" as="geometry" />
        </mxCell>
        <mxCell id="GmVZUq_Jw8FA599wOGir-5" style="edgeStyle=none;shape=connector;rounded=0;orthogonalLoop=1;jettySize=auto;html=1;exitX=1;exitY=0.3333333333333333;exitDx=0;exitDy=0;exitPerimeter=0;entryX=0;entryY=0.5;entryDx=0;entryDy=0;strokeColor=default;align=center;verticalAlign=middle;fontFamily=Helvetica;fontSize=11;fontColor=default;labelBackgroundColor=default;endArrow=none;endFill=0;" edge="1" parent="1" source="GmVZUq_Jw8FA599wOGir-2" target="GmVZUq_Jw8FA599wOGir-3">
          <mxGeometry relative="1" as="geometry" />
        </mxCell>
        <mxCell id="GmVZUq_Jw8FA599wOGir-7" value="1" style="edgeLabel;html=1;align=center;verticalAlign=middle;resizable=0;points=[];fontFamily=Helvetica;fontSize=11;fontColor=default;labelBackgroundColor=default;" vertex="1" connectable="0" parent="GmVZUq_Jw8FA599wOGir-5">
          <mxGeometry x="-0.7963" y="-2" relative="1" as="geometry">
            <mxPoint y="-4" as="offset" />
          </mxGeometry>
        </mxCell>
        <mxCell id="GmVZUq_Jw8FA599wOGir-8" value="1" style="edgeLabel;html=1;align=center;verticalAlign=middle;resizable=0;points=[];fontFamily=Helvetica;fontSize=11;fontColor=default;labelBackgroundColor=default;" vertex="1" connectable="0" parent="GmVZUq_Jw8FA599wOGir-5">
          <mxGeometry x="0.7421" y="-2" relative="1" as="geometry">
            <mxPoint y="-2" as="offset" />
          </mxGeometry>
        </mxCell>
        <mxCell id="GmVZUq_Jw8FA599wOGir-2" value="Operator" style="shape=umlActor;verticalLabelPosition=bottom;verticalAlign=top;html=1;outlineConnect=0;" vertex="1" parent="1">
          <mxGeometry x="23" y="-55.25" width="30" height="60" as="geometry" />
        </mxCell>
        <mxCell id="GmVZUq_Jw8FA599wOGir-3" value="Start System" style="shape=ellipse;html=1;strokeWidth=3;fontStyle=1;whiteSpace=wrap;align=center;perimeter=ellipsePerimeter;" vertex="1" parent="1">
          <mxGeometry x="129" y="-101" width="120" height="60" as="geometry" />
        </mxCell>
        <mxCell id="GmVZUq_Jw8FA599wOGir-6" style="edgeStyle=none;shape=connector;rounded=0;orthogonalLoop=1;jettySize=auto;html=1;exitX=0;exitY=0.5;exitDx=0;exitDy=0;strokeColor=default;align=center;verticalAlign=middle;fontFamily=Helvetica;fontSize=11;fontColor=default;labelBackgroundColor=default;endArrow=none;endFill=0;" edge="1" parent="1" source="GmVZUq_Jw8FA599wOGir-4" target="GmVZUq_Jw8FA599wOGir-2">
          <mxGeometry relative="1" as="geometry" />
        </mxCell>
        <mxCell id="GmVZUq_Jw8FA599wOGir-9" value="1" style="edgeLabel;html=1;align=center;verticalAlign=middle;resizable=0;points=[];fontFamily=Helvetica;fontSize=11;fontColor=default;labelBackgroundColor=default;" vertex="1" connectable="0" parent="GmVZUq_Jw8FA599wOGir-6">
          <mxGeometry x="0.5947" y="1" relative="1" as="geometry">
            <mxPoint x="-4" y="-1" as="offset" />
          </mxGeometry>
        </mxCell>
        <mxCell id="GmVZUq_Jw8FA599wOGir-10" value="0" style="edgeLabel;html=1;align=center;verticalAlign=middle;resizable=0;points=[];fontFamily=Helvetica;fontSize=11;fontColor=default;labelBackgroundColor=default;" vertex="1" connectable="0" parent="GmVZUq_Jw8FA599wOGir-6">
          <mxGeometry x="-0.6992" relative="1" as="geometry">
            <mxPoint as="offset" />
          </mxGeometry>
        </mxCell>
        <mxCell id="GmVZUq_Jw8FA599wOGir-4" value="Check System Logs" style="shape=ellipse;html=1;strokeWidth=3;fontStyle=1;whiteSpace=wrap;align=center;perimeter=ellipsePerimeter;" vertex="1" parent="1">
          <mxGeometry x="129" y="-15" width="120" height="60" as="geometry" />
        </mxCell>
        <mxCell id="GmVZUq_Jw8FA599wOGir-11" value="&lt;div style=&quot;font-size: 14px;&quot;&gt;&lt;span style=&quot;color: rgb(12, 13, 14); font-family: -apple-system, BlinkMacSystemFont, &amp;quot;Segoe UI Adjusted&amp;quot;, &amp;quot;Segoe UI&amp;quot;, &amp;quot;Liberation Sans&amp;quot;, sans-serif; background-color: initial;&quot;&gt;&lt;font style=&quot;font-size: 14px;&quot;&gt;Multiplicity greater than 1 at Actor end means a UseCase involve more than 1 Actor instances.&lt;/font&gt;&lt;/span&gt;&lt;/div&gt;&lt;div style=&quot;font-size: 14px;&quot;&gt;&lt;span style=&quot;color: rgb(12, 13, 14); font-family: -apple-system, BlinkMacSystemFont, &amp;quot;Segoe UI Adjusted&amp;quot;, &amp;quot;Segoe UI&amp;quot;, &amp;quot;Liberation Sans&amp;quot;, sans-serif; background-color: initial;&quot;&gt;&lt;font style=&quot;font-size: 14px;&quot;&gt;&lt;br&gt;&lt;/font&gt;&lt;/span&gt;&lt;/div&gt;&lt;div style=&quot;font-size: 14px;&quot;&gt;&lt;font style=&quot;font-size: 14px;&quot;&gt;&lt;span style=&quot;color: rgb(12, 13, 14); font-family: -apple-system, BlinkMacSystemFont, &amp;quot;Segoe UI Adjusted&amp;quot;, &amp;quot;Segoe UI&amp;quot;, &amp;quot;Liberation Sans&amp;quot;, sans-serif; background-color: initial;&quot;&gt;The example show the UseCase (&lt;/span&gt;&lt;span style=&quot;font-weight: 700; text-align: center; background-color: initial;&quot;&gt;Input Launch Code)&lt;/span&gt;&lt;span style=&quot;background-color: initial; color: rgb(12, 13, 14); font-family: -apple-system, BlinkMacSystemFont, &amp;quot;Segoe UI Adjusted&amp;quot;, &amp;quot;Segoe UI&amp;quot;, &amp;quot;Liberation Sans&amp;quot;, sans-serif;&quot;&gt;&amp;nbsp;requires simultaneous or concurrent action by 2 separate Actors (&lt;/span&gt;&lt;span style=&quot;text-align: center; text-wrap: nowrap; background-color: initial;&quot;&gt;Commander)&lt;/span&gt;&lt;/font&gt;&lt;/div&gt;" style="shape=note;whiteSpace=wrap;html=1;backgroundOutline=1;fontColor=#000000;darkOpacity=0.05;fillColor=#FFF9B2;strokeColor=none;fillStyle=solid;direction=west;gradientDirection=north;gradientColor=#FFF2A1;shadow=1;size=20;pointerEvents=1;align=left;verticalAlign=top;" vertex="1" parent="1">
          <mxGeometry x="-291" y="99" width="289" height="150.75" as="geometry" />
        </mxCell>
      </root>
    </mxGraphModel>
  </diagram>
  <diagram id="qXLxxeXuXwZxAH9ZAk4_" name="Use Case Example">
    <mxGraphModel dx="1658" dy="1904" grid="0" gridSize="10" guides="1" tooltips="1" connect="1" arrows="1" fold="1" page="0" pageScale="1" pageWidth="850" pageHeight="1100" math="0" shadow="0">
      <root>
        <mxCell id="0" />
        <mxCell id="1" value="Main" style="" parent="0" />
        <mxCell id="90neLxpwnQbkYyh6iC2J-1" value="&lt;p style=&quot;margin:0px;margin-top:4px;margin-left:10px;text-align:left;&quot;&gt;&lt;b&gt;Coffee Vending Machine System&lt;/b&gt;&lt;/p&gt;" style="html=1;shape=mxgraph.sysml.package;align=left;spacingLeft=5;verticalAlign=top;spacingTop=-3;labelX=209;html=1;overflow=fill;" parent="1" vertex="1">
          <mxGeometry x="60" y="-28" width="617" height="796" as="geometry" />
        </mxCell>
        <mxCell id="xw6Y9IRTUSybeEBKB08E-1" value="SetAvailableDrinks" style="shape=ellipse;html=1;strokeWidth=3;fontStyle=1;whiteSpace=wrap;align=center;perimeter=ellipsePerimeter;" parent="1" vertex="1">
          <mxGeometry x="421" y="23" width="120" height="60" as="geometry" />
        </mxCell>
        <mxCell id="xw6Y9IRTUSybeEBKB08E-2" value="&lt;br&gt;extension points&lt;br&gt;print_receipt" style="html=1;shape=mxgraph.sysml.useCaseExtPt;whiteSpace=wrap;align=center;" parent="1" vertex="1">
          <mxGeometry x="146.97" y="602" width="160" height="80" as="geometry" />
        </mxCell>
        <mxCell id="xw6Y9IRTUSybeEBKB08E-3" value="PurchaseCoffee" style="resizable=0;html=1;verticalAlign=middle;align=center;labelBackgroundColor=none;fontStyle=1;" parent="xw6Y9IRTUSybeEBKB08E-2" connectable="0" vertex="1">
          <mxGeometry x="80" y="17" as="geometry" />
        </mxCell>
        <mxCell id="90neLxpwnQbkYyh6iC2J-31" style="edgeStyle=none;shape=connector;rounded=0;orthogonalLoop=1;jettySize=auto;html=1;exitX=1;exitY=0.3333333333333333;exitDx=0;exitDy=0;exitPerimeter=0;entryX=0;entryY=0.5;entryDx=0;entryDy=0;strokeColor=default;align=center;verticalAlign=middle;fontFamily=Helvetica;fontSize=11;fontColor=default;labelBackgroundColor=default;endArrow=none;endFill=0;" parent="1" source="xw6Y9IRTUSybeEBKB08E-4" target="90neLxpwnQbkYyh6iC2J-19" edge="1">
          <mxGeometry relative="1" as="geometry" />
        </mxCell>
        <mxCell id="xw6Y9IRTUSybeEBKB08E-4" value="Customer" style="shape=umlActor;verticalLabelPosition=bottom;verticalAlign=top;html=1;outlineConnect=0;" parent="1" vertex="1">
          <mxGeometry x="-55" y="250" width="30" height="60" as="geometry" />
        </mxCell>
        <mxCell id="90neLxpwnQbkYyh6iC2J-2" value="Vendor" style="shape=umlActor;verticalLabelPosition=bottom;verticalAlign=top;html=1;outlineConnect=0;" parent="1" vertex="1">
          <mxGeometry x="770" y="77" width="30" height="60" as="geometry" />
        </mxCell>
        <mxCell id="90neLxpwnQbkYyh6iC2J-10" style="edgeStyle=orthogonalEdgeStyle;rounded=0;orthogonalLoop=1;jettySize=auto;html=1;exitX=0.5;exitY=0;exitDx=0;exitDy=0;exitPerimeter=0;endArrow=block;endFill=0;" parent="1" source="90neLxpwnQbkYyh6iC2J-5" target="90neLxpwnQbkYyh6iC2J-2" edge="1">
          <mxGeometry relative="1" as="geometry" />
        </mxCell>
        <mxCell id="90neLxpwnQbkYyh6iC2J-5" value="Sales Manager" style="shape=umlActor;verticalLabelPosition=bottom;verticalAlign=top;html=1;outlineConnect=0;" parent="1" vertex="1">
          <mxGeometry x="708" y="212" width="30" height="60" as="geometry" />
        </mxCell>
        <mxCell id="90neLxpwnQbkYyh6iC2J-11" style="edgeStyle=orthogonalEdgeStyle;rounded=0;orthogonalLoop=1;jettySize=auto;html=1;exitX=0.5;exitY=0;exitDx=0;exitDy=0;exitPerimeter=0;endArrow=block;endFill=0;" parent="1" source="90neLxpwnQbkYyh6iC2J-6" target="90neLxpwnQbkYyh6iC2J-2" edge="1">
          <mxGeometry relative="1" as="geometry" />
        </mxCell>
        <mxCell id="90neLxpwnQbkYyh6iC2J-6" value="Supplier" style="shape=umlActor;verticalLabelPosition=bottom;verticalAlign=top;html=1;outlineConnect=0;" parent="1" vertex="1">
          <mxGeometry x="838" y="212" width="30" height="60" as="geometry" />
        </mxCell>
        <mxCell id="90neLxpwnQbkYyh6iC2J-12" value="Bean Rack" style="shape=umlActor;verticalLabelPosition=bottom;verticalAlign=top;html=1;outlineConnect=0;" parent="1" vertex="1">
          <mxGeometry x="751" y="345" width="30" height="60" as="geometry" />
        </mxCell>
        <mxCell id="90neLxpwnQbkYyh6iC2J-15" value="Printer" style="shape=umlActor;verticalLabelPosition=bottom;verticalAlign=top;html=1;outlineConnect=0;" parent="1" vertex="1">
          <mxGeometry x="749.97" y="622" width="30" height="60" as="geometry" />
        </mxCell>
        <mxCell id="90neLxpwnQbkYyh6iC2J-16" value="ResetBeanLevel" style="shape=ellipse;html=1;strokeWidth=3;fontStyle=1;whiteSpace=wrap;align=center;perimeter=ellipsePerimeter;" parent="1" vertex="1">
          <mxGeometry x="494" y="119" width="120" height="60" as="geometry" />
        </mxCell>
        <mxCell id="90neLxpwnQbkYyh6iC2J-17" value="DisplayCoffeeSales" style="shape=ellipse;html=1;strokeWidth=3;fontStyle=1;whiteSpace=wrap;align=center;perimeter=ellipsePerimeter;" parent="1" vertex="1">
          <mxGeometry x="497" y="218" width="120" height="60" as="geometry" />
        </mxCell>
        <mxCell id="90neLxpwnQbkYyh6iC2J-18" value="GetBeanLevel" style="shape=ellipse;html=1;strokeWidth=3;fontStyle=1;whiteSpace=wrap;align=center;perimeter=ellipsePerimeter;" parent="1" vertex="1">
          <mxGeometry x="355" y="336" width="120" height="60" as="geometry" />
        </mxCell>
        <mxCell id="90neLxpwnQbkYyh6iC2J-19" value="ShowAvailableDrinks" style="shape=ellipse;html=1;strokeWidth=3;fontStyle=1;whiteSpace=wrap;align=center;perimeter=ellipsePerimeter;" parent="1" vertex="1">
          <mxGeometry x="135" y="175" width="120" height="60" as="geometry" />
        </mxCell>
        <mxCell id="90neLxpwnQbkYyh6iC2J-20" value="&amp;lt;&amp;lt;include&amp;gt;&amp;gt;" style="edgeStyle=none;html=1;endArrow=open;verticalAlign=bottom;dashed=1;labelBackgroundColor=none;rounded=0;exitX=1;exitY=1;exitDx=0;exitDy=0;entryX=0;entryY=0;entryDx=0;entryDy=0;" parent="1" source="90neLxpwnQbkYyh6iC2J-19" target="90neLxpwnQbkYyh6iC2J-18" edge="1">
          <mxGeometry width="160" relative="1" as="geometry">
            <mxPoint x="314" y="247" as="sourcePoint" />
            <mxPoint x="474" y="247" as="targetPoint" />
          </mxGeometry>
        </mxCell>
        <mxCell id="90neLxpwnQbkYyh6iC2J-21" value="&amp;lt;&amp;lt;include&amp;gt;&amp;gt;" style="edgeStyle=none;html=1;endArrow=open;verticalAlign=bottom;dashed=1;labelBackgroundColor=none;rounded=0;" parent="1" source="xw6Y9IRTUSybeEBKB08E-1" target="90neLxpwnQbkYyh6iC2J-18" edge="1">
          <mxGeometry width="160" relative="1" as="geometry">
            <mxPoint x="236" y="169" as="sourcePoint" />
            <mxPoint x="385" y="352" as="targetPoint" />
          </mxGeometry>
        </mxCell>
        <mxCell id="90neLxpwnQbkYyh6iC2J-22" style="rounded=0;orthogonalLoop=1;jettySize=auto;html=1;exitX=1;exitY=0.5;exitDx=0;exitDy=0;entryX=0;entryY=0.3333333333333333;entryDx=0;entryDy=0;entryPerimeter=0;endArrow=none;endFill=0;" parent="1" source="xw6Y9IRTUSybeEBKB08E-1" target="90neLxpwnQbkYyh6iC2J-2" edge="1">
          <mxGeometry relative="1" as="geometry" />
        </mxCell>
        <mxCell id="90neLxpwnQbkYyh6iC2J-23" style="edgeStyle=none;shape=connector;rounded=0;orthogonalLoop=1;jettySize=auto;html=1;exitX=1;exitY=0.5;exitDx=0;exitDy=0;strokeColor=default;align=center;verticalAlign=middle;fontFamily=Helvetica;fontSize=11;fontColor=default;labelBackgroundColor=default;endArrow=none;endFill=0;" parent="1" source="90neLxpwnQbkYyh6iC2J-16" target="90neLxpwnQbkYyh6iC2J-2" edge="1">
          <mxGeometry relative="1" as="geometry" />
        </mxCell>
        <mxCell id="90neLxpwnQbkYyh6iC2J-24" style="edgeStyle=none;shape=connector;rounded=0;orthogonalLoop=1;jettySize=auto;html=1;exitX=1;exitY=0.5;exitDx=0;exitDy=0;entryX=0;entryY=0.3333333333333333;entryDx=0;entryDy=0;entryPerimeter=0;strokeColor=default;align=center;verticalAlign=middle;fontFamily=Helvetica;fontSize=11;fontColor=default;labelBackgroundColor=default;endArrow=none;endFill=0;" parent="1" source="90neLxpwnQbkYyh6iC2J-17" target="90neLxpwnQbkYyh6iC2J-5" edge="1">
          <mxGeometry relative="1" as="geometry" />
        </mxCell>
        <mxCell id="90neLxpwnQbkYyh6iC2J-25" style="edgeStyle=none;shape=connector;rounded=0;orthogonalLoop=1;jettySize=auto;html=1;exitX=1;exitY=0.5;exitDx=0;exitDy=0;entryX=0;entryY=0.3333333333333333;entryDx=0;entryDy=0;entryPerimeter=0;strokeColor=default;align=center;verticalAlign=middle;fontFamily=Helvetica;fontSize=11;fontColor=default;labelBackgroundColor=default;endArrow=none;endFill=0;" parent="1" source="90neLxpwnQbkYyh6iC2J-18" target="90neLxpwnQbkYyh6iC2J-12" edge="1">
          <mxGeometry relative="1" as="geometry" />
        </mxCell>
        <mxCell id="90neLxpwnQbkYyh6iC2J-26" value="PrintReceipt" style="shape=ellipse;html=1;strokeWidth=3;fontStyle=1;whiteSpace=wrap;align=center;perimeter=ellipsePerimeter;" parent="1" vertex="1">
          <mxGeometry x="470.97" y="612" width="120" height="60" as="geometry" />
        </mxCell>
        <mxCell id="90neLxpwnQbkYyh6iC2J-27" style="edgeStyle=none;shape=connector;rounded=0;orthogonalLoop=1;jettySize=auto;html=1;exitX=1;exitY=0.5;exitDx=0;exitDy=0;entryX=0;entryY=0.3333333333333333;entryDx=0;entryDy=0;entryPerimeter=0;strokeColor=default;align=center;verticalAlign=middle;fontFamily=Helvetica;fontSize=11;fontColor=default;labelBackgroundColor=default;endArrow=none;endFill=0;" parent="1" source="90neLxpwnQbkYyh6iC2J-26" target="90neLxpwnQbkYyh6iC2J-15" edge="1">
          <mxGeometry relative="1" as="geometry" />
        </mxCell>
        <mxCell id="90neLxpwnQbkYyh6iC2J-28" value="Condition: {clicks print receipt}&#xa;extension point: print_receipt" style="shape=note;size=15;spacingLeft=5;align=left;whiteSpace=wrap;fontFamily=Helvetica;fontSize=11;fontColor=default;labelBackgroundColor=default;" parent="1" vertex="1">
          <mxGeometry x="327.97" y="564" width="230" height="40" as="geometry" />
        </mxCell>
        <mxCell id="90neLxpwnQbkYyh6iC2J-29" value="&amp;lt;&amp;lt;extend&amp;gt;&amp;gt;" style="align=right;html=1;verticalAlign=bottom;rounded=0;labelBackgroundColor=none;endArrow=open;endSize=12;dashed=1;strokeColor=default;fontFamily=Helvetica;fontSize=11;fontColor=default;entryX=1;entryY=0.5;entryDx=0;entryDy=0;entryPerimeter=0;exitX=0;exitY=0.5;exitDx=0;exitDy=0;" parent="1" source="90neLxpwnQbkYyh6iC2J-26" target="xw6Y9IRTUSybeEBKB08E-2" edge="1">
          <mxGeometry relative="1" as="geometry">
            <mxPoint x="307.97" y="644" as="targetPoint" />
            <mxPoint x="467.97" y="644" as="sourcePoint" />
          </mxGeometry>
        </mxCell>
        <mxCell id="90neLxpwnQbkYyh6iC2J-30" value="" style="edgeStyle=none;html=1;endArrow=none;rounded=0;labelBackgroundColor=none;dashed=1;exitX=0.5;exitY=1;strokeColor=default;align=center;verticalAlign=middle;fontFamily=Helvetica;fontSize=11;fontColor=default;" parent="1" source="90neLxpwnQbkYyh6iC2J-28" edge="1">
          <mxGeometry relative="1" as="geometry">
            <mxPoint x="407.97" y="644" as="targetPoint" />
          </mxGeometry>
        </mxCell>
        <mxCell id="90neLxpwnQbkYyh6iC2J-32" style="edgeStyle=none;shape=connector;rounded=0;orthogonalLoop=1;jettySize=auto;html=1;exitX=1;exitY=0.3333333333333333;exitDx=0;exitDy=0;exitPerimeter=0;entryX=0;entryY=0.5;entryDx=0;entryDy=0;entryPerimeter=0;strokeColor=default;align=center;verticalAlign=middle;fontFamily=Helvetica;fontSize=11;fontColor=default;labelBackgroundColor=default;endArrow=none;endFill=0;" parent="1" source="xw6Y9IRTUSybeEBKB08E-4" target="xw6Y9IRTUSybeEBKB08E-2" edge="1">
          <mxGeometry relative="1" as="geometry" />
        </mxCell>
        <mxCell id="tzZ_4P01xmAcH8LYmq8I-11" value="Payment" style="shape=ellipse;html=1;strokeWidth=3;fontStyle=1;whiteSpace=wrap;align=center;perimeter=ellipsePerimeter;" parent="1" vertex="1">
          <mxGeometry x="338" y="453" width="120" height="60" as="geometry" />
        </mxCell>
        <mxCell id="tzZ_4P01xmAcH8LYmq8I-12" value="Payment by cash" style="shape=ellipse;html=1;strokeWidth=3;fontStyle=1;whiteSpace=wrap;align=center;perimeter=ellipsePerimeter;" parent="1" vertex="1">
          <mxGeometry x="474" y="409" width="120" height="60" as="geometry" />
        </mxCell>
        <mxCell id="tzZ_4P01xmAcH8LYmq8I-13" value="Payment by card" style="shape=ellipse;html=1;strokeWidth=3;fontStyle=1;whiteSpace=wrap;align=center;perimeter=ellipsePerimeter;" parent="1" vertex="1">
          <mxGeometry x="474" y="487" width="120" height="60" as="geometry" />
        </mxCell>
        <mxCell id="tzZ_4P01xmAcH8LYmq8I-14" value="" style="edgeStyle=none;html=1;endArrow=block;endFill=0;endSize=12;verticalAlign=bottom;rounded=0;exitX=0;exitY=0.5;exitDx=0;exitDy=0;" parent="1" source="tzZ_4P01xmAcH8LYmq8I-12" target="tzZ_4P01xmAcH8LYmq8I-11" edge="1">
          <mxGeometry width="160" relative="1" as="geometry">
            <mxPoint x="403" y="601" as="sourcePoint" />
            <mxPoint x="563" y="601" as="targetPoint" />
          </mxGeometry>
        </mxCell>
        <mxCell id="tzZ_4P01xmAcH8LYmq8I-15" value="" style="edgeStyle=none;html=1;endArrow=block;endFill=0;endSize=12;verticalAlign=bottom;rounded=0;entryX=1;entryY=1;entryDx=0;entryDy=0;exitX=0;exitY=0.5;exitDx=0;exitDy=0;" parent="1" source="tzZ_4P01xmAcH8LYmq8I-13" target="tzZ_4P01xmAcH8LYmq8I-11" edge="1">
          <mxGeometry width="160" relative="1" as="geometry">
            <mxPoint x="496" y="627" as="sourcePoint" />
            <mxPoint x="427" y="684" as="targetPoint" />
          </mxGeometry>
        </mxCell>
        <mxCell id="tzZ_4P01xmAcH8LYmq8I-16" value="&amp;lt;&amp;lt;include&amp;gt;&amp;gt;" style="edgeStyle=none;html=1;endArrow=open;verticalAlign=bottom;dashed=1;labelBackgroundColor=none;rounded=0;exitX=0.818;exitY=0.135;exitDx=0;exitDy=0;entryX=0;entryY=0.5;entryDx=0;entryDy=0;exitPerimeter=0;" parent="1" target="tzZ_4P01xmAcH8LYmq8I-11" edge="1">
          <mxGeometry width="160" relative="1" as="geometry">
            <mxPoint x="278" y="613" as="sourcePoint" />
            <mxPoint x="273" y="730" as="targetPoint" />
          </mxGeometry>
        </mxCell>
        <mxCell id="oMa-YYFSlQReQpS9Pxsv-1" value="Notes" parent="0" />
        <mxCell id="oMa-YYFSlQReQpS9Pxsv-2" value="&lt;span style=&quot;color: rgb(12, 13, 14); font-family: -apple-system, BlinkMacSystemFont, &amp;quot;Segoe UI Adjusted&amp;quot;, &amp;quot;Segoe UI&amp;quot;, &amp;quot;Liberation Sans&amp;quot;, sans-serif; font-size: 15px;&quot;&gt;&lt;b&gt;Primary Actor&lt;/b&gt;&lt;/span&gt;&lt;div&gt;&lt;ul&gt;&lt;li&gt;&lt;span style=&quot;color: rgb(12, 13, 14); font-family: -apple-system, BlinkMacSystemFont, &amp;quot;Segoe UI Adjusted&amp;quot;, &amp;quot;Segoe UI&amp;quot;, &amp;quot;Liberation Sans&amp;quot;, sans-serif; font-size: 15px;&quot;&gt;Initiates interaction with the system&lt;/span&gt;&lt;/li&gt;&lt;li&gt;&lt;span style=&quot;color: rgb(12, 13, 14); font-family: -apple-system, BlinkMacSystemFont, &amp;quot;Segoe UI Adjusted&amp;quot;, &amp;quot;Segoe UI&amp;quot;, &amp;quot;Liberation Sans&amp;quot;, sans-serif; font-size: 15px;&quot;&gt;Main focus of the use&lt;/span&gt;&lt;/li&gt;&lt;li&gt;&lt;span style=&quot;color: rgb(12, 13, 14); font-family: -apple-system, BlinkMacSystemFont, &amp;quot;Segoe UI Adjusted&amp;quot;, &amp;quot;Segoe UI&amp;quot;, &amp;quot;Liberation Sans&amp;quot;, sans-serif; font-size: 15px;&quot;&gt;Main beneficiary of the interaction&lt;/span&gt;&lt;/li&gt;&lt;li&gt;&lt;span style=&quot;color: rgb(12, 13, 14); font-family: -apple-system, BlinkMacSystemFont, &amp;quot;Segoe UI Adjusted&amp;quot;, &amp;quot;Segoe UI&amp;quot;, &amp;quot;Liberation Sans&amp;quot;, sans-serif; font-size: 15px; background-color: initial;&quot;&gt;Placed on the left&lt;/span&gt;&lt;/li&gt;&lt;/ul&gt;&lt;/div&gt;" style="shape=note;whiteSpace=wrap;html=1;backgroundOutline=1;fontColor=#000000;darkOpacity=0.05;fillColor=#FFF9B2;strokeColor=none;fillStyle=solid;direction=west;gradientDirection=north;gradientColor=#FFF2A1;shadow=1;size=20;pointerEvents=1;align=left;verticalAlign=top;" parent="oMa-YYFSlQReQpS9Pxsv-1" vertex="1">
          <mxGeometry x="-450" y="204" width="314" height="121" as="geometry" />
        </mxCell>
        <mxCell id="oMa-YYFSlQReQpS9Pxsv-3" value="&lt;span style=&quot;color: rgb(12, 13, 14); font-family: -apple-system, BlinkMacSystemFont, &amp;quot;Segoe UI Adjusted&amp;quot;, &amp;quot;Segoe UI&amp;quot;, &amp;quot;Liberation Sans&amp;quot;, sans-serif; font-size: 15px;&quot;&gt;&lt;b&gt;Secondary Actor&lt;/b&gt;&lt;/span&gt;&lt;div&gt;&lt;ul&gt;&lt;li&gt;&lt;span style=&quot;color: rgb(12, 13, 14); font-family: -apple-system, BlinkMacSystemFont, &amp;quot;Segoe UI Adjusted&amp;quot;, &amp;quot;Segoe UI&amp;quot;, &amp;quot;Liberation Sans&amp;quot;, sans-serif; font-size: 15px;&quot;&gt;Does not initiates interaction with the system&lt;/span&gt;&lt;/li&gt;&lt;li&gt;&lt;span style=&quot;color: rgb(12, 13, 14); font-family: -apple-system, BlinkMacSystemFont, &amp;quot;Segoe UI Adjusted&amp;quot;, &amp;quot;Segoe UI&amp;quot;, &amp;quot;Liberation Sans&amp;quot;, sans-serif; font-size: 15px;&quot;&gt;Supports primary actor or system&lt;/span&gt;&lt;/li&gt;&lt;li&gt;&lt;span style=&quot;color: rgb(12, 13, 14); font-family: -apple-system, BlinkMacSystemFont, &amp;quot;Segoe UI Adjusted&amp;quot;, &amp;quot;Segoe UI&amp;quot;, &amp;quot;Liberation Sans&amp;quot;, sans-serif; font-size: 15px;&quot;&gt;Contributes to achieving Primary Actor&#39;s goal&lt;/span&gt;&lt;/li&gt;&lt;li&gt;&lt;span style=&quot;color: rgb(12, 13, 14); font-family: -apple-system, BlinkMacSystemFont, &amp;quot;Segoe UI Adjusted&amp;quot;, &amp;quot;Segoe UI&amp;quot;, &amp;quot;Liberation Sans&amp;quot;, sans-serif; font-size: 15px; background-color: initial;&quot;&gt;Placed on the right&lt;/span&gt;&lt;/li&gt;&lt;/ul&gt;&lt;/div&gt;" style="shape=note;whiteSpace=wrap;html=1;backgroundOutline=1;fontColor=#000000;darkOpacity=0.05;fillColor=#FFF9B2;strokeColor=none;fillStyle=solid;direction=west;gradientDirection=north;gradientColor=#FFF2A1;shadow=1;size=20;pointerEvents=1;align=left;verticalAlign=top;" parent="oMa-YYFSlQReQpS9Pxsv-1" vertex="1">
          <mxGeometry x="951" y="6" width="398" height="121" as="geometry" />
        </mxCell>
        <mxCell id="oMa-YYFSlQReQpS9Pxsv-4" value="&lt;font face=&quot;-apple-system, BlinkMacSystemFont, Segoe UI Adjusted, Segoe UI, Liberation Sans, sans-serif&quot; color=&quot;#0c0d0e&quot;&gt;&lt;span style=&quot;font-size: 15px;&quot;&gt;&lt;b&gt;Ordering&lt;/b&gt;&lt;/span&gt;&lt;/font&gt;&lt;div&gt;&lt;font face=&quot;-apple-system, BlinkMacSystemFont, Segoe UI Adjusted, Segoe UI, Liberation Sans, sans-serif&quot; color=&quot;#0c0d0e&quot;&gt;&lt;span style=&quot;font-size: 15px;&quot;&gt;Human actors are placed closer to the top of system,&lt;/span&gt;&lt;/font&gt;&lt;/div&gt;&lt;div&gt;&lt;font face=&quot;-apple-system, BlinkMacSystemFont, Segoe UI Adjusted, Segoe UI, Liberation Sans, sans-serif&quot; color=&quot;#0c0d0e&quot;&gt;&lt;span style=&quot;font-size: 15px;&quot;&gt;non-human actors are places closer to the bottom&lt;/span&gt;&lt;/font&gt;&lt;/div&gt;" style="shape=note;whiteSpace=wrap;html=1;backgroundOutline=1;fontColor=#000000;darkOpacity=0.05;fillColor=#FFF9B2;strokeColor=none;fillStyle=solid;direction=west;gradientDirection=north;gradientColor=#FFF2A1;shadow=1;size=20;pointerEvents=1;align=left;verticalAlign=top;" parent="oMa-YYFSlQReQpS9Pxsv-1" vertex="1">
          <mxGeometry x="960" y="201" width="389" height="121" as="geometry" />
        </mxCell>
        <mxCell id="tzZ_4P01xmAcH8LYmq8I-17" style="edgeStyle=none;shape=connector;rounded=0;orthogonalLoop=1;jettySize=auto;html=1;exitX=0.5;exitY=1;exitDx=0;exitDy=0;exitPerimeter=0;dashed=1;strokeColor=default;align=center;verticalAlign=middle;fontFamily=Helvetica;fontSize=11;fontColor=default;labelBackgroundColor=default;endArrow=none;endFill=0;" parent="oMa-YYFSlQReQpS9Pxsv-1" source="oMa-YYFSlQReQpS9Pxsv-5" edge="1">
          <mxGeometry relative="1" as="geometry">
            <mxPoint x="384.2962962962961" y="640.8888888888887" as="targetPoint" />
          </mxGeometry>
        </mxCell>
        <mxCell id="oMa-YYFSlQReQpS9Pxsv-5" value="&lt;div&gt;&lt;span style=&quot;color: rgb(12, 13, 14); font-family: -apple-system, BlinkMacSystemFont, &amp;quot;Segoe UI Adjusted&amp;quot;, &amp;quot;Segoe UI&amp;quot;, &amp;quot;Liberation Sans&amp;quot;, sans-serif; font-size: 15px;&quot;&gt;&lt;b&gt;&amp;lt;&amp;lt;Extend&amp;gt;&amp;gt;&lt;/b&gt;&lt;/span&gt;&lt;div&gt;&lt;ul&gt;&lt;/ul&gt;&lt;/div&gt;&lt;/div&gt;&lt;ul&gt;&lt;li&gt;&lt;font style=&quot;font-size: 15px;&quot;&gt;&amp;lt;&amp;lt;extend&amp;gt;&amp;gt; use case is a fragment of functionality that is not considered part of the base use case functionality.&lt;/font&gt;&lt;/li&gt;&lt;li&gt;&lt;font style=&quot;font-size: 15px;&quot;&gt;&amp;lt;&amp;lt;extend&amp;gt;&amp;gt; use case only happens when the extension point happens&lt;/font&gt;&lt;/li&gt;&lt;li&gt;&lt;font style=&quot;font-size: 15px;&quot;&gt;Extended use case are not numbered in the base use case main flow, as they are not part of the flow&lt;/font&gt;&lt;/li&gt;&lt;/ul&gt;" style="shape=note;whiteSpace=wrap;html=1;backgroundOutline=1;fontColor=#000000;darkOpacity=0.05;fillColor=#FFF9B2;strokeColor=none;fillStyle=solid;direction=west;gradientDirection=north;gradientColor=#FFF2A1;shadow=1;size=20;pointerEvents=1;align=left;verticalAlign=top;" parent="oMa-YYFSlQReQpS9Pxsv-1" vertex="1">
          <mxGeometry x="191" y="810" width="387" height="164" as="geometry" />
        </mxCell>
        <mxCell id="tzZ_4P01xmAcH8LYmq8I-18" style="edgeStyle=none;shape=connector;rounded=0;orthogonalLoop=1;jettySize=auto;html=1;exitX=0;exitY=0;exitDx=479.00000000000006;exitDy=180;exitPerimeter=0;dashed=1;strokeColor=default;align=center;verticalAlign=middle;fontFamily=Helvetica;fontSize=11;fontColor=default;labelBackgroundColor=default;endArrow=none;endFill=0;" parent="oMa-YYFSlQReQpS9Pxsv-1" source="oMa-YYFSlQReQpS9Pxsv-6" target="oMa-YYFSlQReQpS9Pxsv-5" edge="1">
          <mxGeometry relative="1" as="geometry" />
        </mxCell>
        <mxCell id="oMa-YYFSlQReQpS9Pxsv-6" value="&lt;div&gt;&lt;font face=&quot;-apple-system, BlinkMacSystemFont, Segoe UI Adjusted, Segoe UI, Liberation Sans, sans-serif&quot; color=&quot;#0c0d0e&quot;&gt;&lt;span style=&quot;font-size: 15px;&quot;&gt;&lt;b&gt;Use Case: Purchase Coffee&lt;/b&gt;&lt;/span&gt;&lt;/font&gt;&lt;/div&gt;&lt;div&gt;&lt;font face=&quot;-apple-system, BlinkMacSystemFont, Segoe UI Adjusted, Segoe UI, Liberation Sans, sans-serif&quot; color=&quot;#0c0d0e&quot;&gt;&lt;span style=&quot;font-size: 15px;&quot;&gt;&lt;b&gt;___________________________________________________________________________&lt;/b&gt;&lt;/span&gt;&lt;/font&gt;&lt;/div&gt;&lt;div&gt;&lt;font face=&quot;-apple-system, BlinkMacSystemFont, Segoe UI Adjusted, Segoe UI, Liberation Sans, sans-serif&quot; color=&quot;#0c0d0e&quot;&gt;&lt;span style=&quot;font-size: 15px;&quot;&gt;&lt;b&gt;&lt;br&gt;&lt;/b&gt;&lt;/span&gt;&lt;/font&gt;&lt;/div&gt;&lt;div&gt;&lt;font face=&quot;-apple-system, BlinkMacSystemFont, Segoe UI Adjusted, Segoe UI, Liberation Sans, sans-serif&quot; color=&quot;#0c0d0e&quot;&gt;&lt;span style=&quot;font-size: 15px;&quot;&gt;&lt;b&gt;ID: &lt;/b&gt;2&lt;/span&gt;&lt;/font&gt;&lt;/div&gt;&lt;div&gt;&lt;font face=&quot;-apple-system, BlinkMacSystemFont, Segoe UI Adjusted, Segoe UI, Liberation Sans, sans-serif&quot; color=&quot;#0c0d0e&quot;&gt;&lt;span style=&quot;font-size: 15px;&quot;&gt;&lt;b&gt;Brief Description: &lt;/b&gt;Customer pays for selected coffee with cash&lt;/span&gt;&lt;/font&gt;&lt;/div&gt;&lt;div&gt;&lt;font face=&quot;-apple-system, BlinkMacSystemFont, Segoe UI Adjusted, Segoe UI, Liberation Sans, sans-serif&quot; color=&quot;#0c0d0e&quot;&gt;&lt;span style=&quot;font-size: 15px;&quot;&gt;&lt;b&gt;Actor: &lt;/b&gt;Customer&lt;/span&gt;&lt;/font&gt;&lt;/div&gt;&lt;div&gt;&lt;font face=&quot;-apple-system, BlinkMacSystemFont, Segoe UI Adjusted, Segoe UI, Liberation Sans, sans-serif&quot; color=&quot;#0c0d0e&quot;&gt;&lt;span style=&quot;font-size: 15px;&quot;&gt;&lt;b&gt;Pre-condition: &lt;/b&gt;The Customer has selected a drink&lt;/span&gt;&lt;/font&gt;&lt;/div&gt;&lt;div&gt;&lt;font face=&quot;-apple-system, BlinkMacSystemFont, Segoe UI Adjusted, Segoe UI, Liberation Sans, sans-serif&quot; color=&quot;#0c0d0e&quot;&gt;&lt;span style=&quot;font-size: 15px;&quot;&gt;&lt;br&gt;&lt;/span&gt;&lt;/font&gt;&lt;/div&gt;&lt;div&gt;&lt;font face=&quot;-apple-system, BlinkMacSystemFont, Segoe UI Adjusted, Segoe UI, Liberation Sans, sans-serif&quot; color=&quot;#0c0d0e&quot;&gt;&lt;span style=&quot;font-size: 15px;&quot;&gt;&lt;b&gt;Main Flow(Secenario Text)&lt;/b&gt;&lt;br&gt;1. Customer selects &quot;Purchase&quot;&lt;/span&gt;&lt;/font&gt;&lt;/div&gt;&lt;div&gt;&lt;font face=&quot;-apple-system, BlinkMacSystemFont, Segoe UI Adjusted, Segoe UI, Liberation Sans, sans-serif&quot; color=&quot;#0c0d0e&quot;&gt;&lt;span style=&quot;font-size: 15px;&quot;&gt;2. Customer makes payment&lt;/span&gt;&lt;/font&gt;&lt;/div&gt;&lt;div&gt;&lt;font face=&quot;-apple-system, BlinkMacSystemFont, Segoe UI Adjusted, Segoe UI, Liberation Sans, sans-serif&quot; color=&quot;#0c0d0e&quot;&gt;&lt;span style=&quot;font-size: 15px;&quot;&gt;3. System prompts customer if a receipt needs to be printed&lt;/span&gt;&lt;/font&gt;&lt;/div&gt;&lt;div&gt;&lt;font face=&quot;-apple-system, BlinkMacSystemFont, Segoe UI Adjusted, Segoe UI, Liberation Sans, sans-serif&quot; color=&quot;#0c0d0e&quot;&gt;&lt;span style=&quot;font-size: 15px;&quot;&gt;extension point: &quot;print receipt&quot;&lt;/span&gt;&lt;/font&gt;&lt;/div&gt;&lt;div&gt;&lt;font face=&quot;-apple-system, BlinkMacSystemFont, Segoe UI Adjusted, Segoe UI, Liberation Sans, sans-serif&quot; color=&quot;#0c0d0e&quot;&gt;&lt;span style=&quot;font-size: 15px;&quot;&gt;&lt;br&gt;&lt;/span&gt;&lt;/font&gt;&lt;/div&gt;&lt;div&gt;&lt;font face=&quot;-apple-system, BlinkMacSystemFont, Segoe UI Adjusted, Segoe UI, Liberation Sans, sans-serif&quot; color=&quot;#0c0d0e&quot;&gt;&lt;span style=&quot;font-size: 15px;&quot;&gt;&lt;b&gt;Post-Condition: &lt;/b&gt;Customer payment is processed&lt;/span&gt;&lt;/font&gt;&lt;/div&gt;&lt;div&gt;&lt;font face=&quot;-apple-system, BlinkMacSystemFont, Segoe UI Adjusted, Segoe UI, Liberation Sans, sans-serif&quot; color=&quot;#0c0d0e&quot;&gt;&lt;span style=&quot;font-size: 15px;&quot;&gt;&lt;br&gt;&lt;/span&gt;&lt;/font&gt;&lt;/div&gt;" style="shape=note;whiteSpace=wrap;html=1;backgroundOutline=1;fontColor=#000000;darkOpacity=0.05;fillColor=#FFF9B2;strokeColor=none;fillStyle=solid;direction=west;gradientDirection=north;gradientColor=#FFF2A1;shadow=1;size=20;pointerEvents=1;align=left;verticalAlign=top;" parent="oMa-YYFSlQReQpS9Pxsv-1" vertex="1">
          <mxGeometry x="597" y="942" width="479" height="340" as="geometry" />
        </mxCell>
        <mxCell id="tzZ_4P01xmAcH8LYmq8I-9" style="edgeStyle=none;shape=connector;rounded=0;orthogonalLoop=1;jettySize=auto;html=1;exitX=0;exitY=0;exitDx=88;exitDy=0;exitPerimeter=0;dashed=1;strokeColor=default;align=center;verticalAlign=middle;fontFamily=Helvetica;fontSize=11;fontColor=default;labelBackgroundColor=default;endArrow=none;endFill=0;" parent="oMa-YYFSlQReQpS9Pxsv-1" source="oMa-YYFSlQReQpS9Pxsv-7" edge="1">
          <mxGeometry relative="1" as="geometry">
            <mxPoint x="464.5" y="128" as="targetPoint" />
          </mxGeometry>
        </mxCell>
        <mxCell id="oMa-YYFSlQReQpS9Pxsv-7" value="&lt;div&gt;&lt;font style=&quot;font-size: 15px;&quot;&gt;&amp;lt;&amp;lt;include&amp;gt;&amp;gt; use case is performed whenever its base use case is performed&lt;/font&gt;&lt;font face=&quot;-apple-system, BlinkMacSystemFont, Segoe UI Adjusted, Segoe UI, Liberation Sans, sans-serif&quot; color=&quot;#0c0d0e&quot;&gt;&lt;span style=&quot;font-size: 15px;&quot;&gt;&lt;b&gt;&lt;br&gt;&lt;/b&gt;&lt;/span&gt;&lt;/font&gt;&lt;/div&gt;" style="shape=note;whiteSpace=wrap;html=1;backgroundOutline=1;fontColor=#000000;darkOpacity=0.05;fillColor=#FFF9B2;strokeColor=none;fillStyle=solid;direction=west;gradientDirection=north;gradientColor=#FFF2A1;shadow=1;size=20;pointerEvents=1;align=left;verticalAlign=top;" parent="oMa-YYFSlQReQpS9Pxsv-1" vertex="1">
          <mxGeometry x="260" y="-28" width="196" height="74" as="geometry" />
        </mxCell>
        <mxCell id="tzZ_4P01xmAcH8LYmq8I-8" style="edgeStyle=none;shape=connector;rounded=0;orthogonalLoop=1;jettySize=auto;html=1;exitX=0;exitY=0;exitDx=0;exitDy=0;exitPerimeter=0;dashed=1;strokeColor=default;align=center;verticalAlign=middle;fontFamily=Helvetica;fontSize=11;fontColor=default;labelBackgroundColor=default;endArrow=none;endFill=0;" parent="oMa-YYFSlQReQpS9Pxsv-1" source="oMa-YYFSlQReQpS9Pxsv-40" target="90neLxpwnQbkYyh6iC2J-19" edge="1">
          <mxGeometry relative="1" as="geometry" />
        </mxCell>
        <mxCell id="oMa-YYFSlQReQpS9Pxsv-40" value="&lt;div&gt;&lt;font style=&quot;font-size: 15px;&quot;&gt;use case should start with a verb&lt;/font&gt;&lt;font face=&quot;-apple-system, BlinkMacSystemFont, Segoe UI Adjusted, Segoe UI, Liberation Sans, sans-serif&quot; color=&quot;#0c0d0e&quot;&gt;&lt;span style=&quot;font-size: 15px;&quot;&gt;&lt;b&gt;&lt;br&gt;&lt;/b&gt;&lt;/span&gt;&lt;/font&gt;&lt;/div&gt;" style="shape=note;whiteSpace=wrap;html=1;backgroundOutline=1;fontColor=#000000;darkOpacity=0.05;fillColor=#FFF9B2;strokeColor=none;fillStyle=solid;direction=west;gradientDirection=north;gradientColor=#FFF2A1;shadow=1;size=20;pointerEvents=1;align=left;verticalAlign=top;" parent="oMa-YYFSlQReQpS9Pxsv-1" vertex="1">
          <mxGeometry x="-38" y="77" width="174" height="50" as="geometry" />
        </mxCell>
        <mxCell id="upP2iJYKwNuUZ4VBQSVb-1" style="edgeStyle=none;shape=connector;rounded=0;orthogonalLoop=1;jettySize=auto;html=1;strokeColor=default;align=center;verticalAlign=middle;fontFamily=Helvetica;fontSize=11;fontColor=default;labelBackgroundColor=default;endArrow=none;endFill=0;" parent="oMa-YYFSlQReQpS9Pxsv-1" source="oMa-YYFSlQReQpS9Pxsv-6" target="oMa-YYFSlQReQpS9Pxsv-6" edge="1">
          <mxGeometry relative="1" as="geometry" />
        </mxCell>
        <mxCell id="tzZ_4P01xmAcH8LYmq8I-7" style="edgeStyle=none;shape=connector;rounded=0;orthogonalLoop=1;jettySize=auto;html=1;exitX=0;exitY=0.5;exitDx=0;exitDy=0;exitPerimeter=0;entryX=0.5;entryY=0.5;entryDx=0;entryDy=0;entryPerimeter=0;strokeColor=default;align=center;verticalAlign=middle;fontFamily=Helvetica;fontSize=11;fontColor=default;labelBackgroundColor=default;endArrow=none;endFill=0;dashed=1;" parent="oMa-YYFSlQReQpS9Pxsv-1" source="oMa-YYFSlQReQpS9Pxsv-2" target="xw6Y9IRTUSybeEBKB08E-4" edge="1">
          <mxGeometry relative="1" as="geometry" />
        </mxCell>
        <mxCell id="tzZ_4P01xmAcH8LYmq8I-10" style="edgeStyle=none;shape=connector;rounded=0;orthogonalLoop=1;jettySize=auto;html=1;exitX=0;exitY=0;exitDx=398;exitDy=20;exitPerimeter=0;entryX=0.5;entryY=0.5;entryDx=0;entryDy=0;entryPerimeter=0;dashed=1;strokeColor=default;align=center;verticalAlign=middle;fontFamily=Helvetica;fontSize=11;fontColor=default;labelBackgroundColor=default;endArrow=none;endFill=0;" parent="oMa-YYFSlQReQpS9Pxsv-1" source="oMa-YYFSlQReQpS9Pxsv-3" target="90neLxpwnQbkYyh6iC2J-6" edge="1">
          <mxGeometry relative="1" as="geometry" />
        </mxCell>
        <mxCell id="tzZ_4P01xmAcH8LYmq8I-19" value="" style="labelPosition=right;align=left;strokeWidth=1;shape=mxgraph.mockup.markup.curlyBrace;html=1;shadow=0;dashed=0;strokeColor=#999999;direction=north;fontFamily=Helvetica;fontSize=11;fontColor=default;labelBackgroundColor=default;rotation=-180;" parent="oMa-YYFSlQReQpS9Pxsv-1" vertex="1">
          <mxGeometry x="881" y="80" width="20" height="340" as="geometry" />
        </mxCell>
        <mxCell id="tzZ_4P01xmAcH8LYmq8I-20" style="edgeStyle=none;shape=connector;rounded=0;orthogonalLoop=1;jettySize=auto;html=1;exitX=0;exitY=0;exitDx=389;exitDy=70.5;exitPerimeter=0;entryX=0.503;entryY=0.344;entryDx=0;entryDy=0;entryPerimeter=0;dashed=1;strokeColor=default;align=center;verticalAlign=middle;fontFamily=Helvetica;fontSize=11;fontColor=default;labelBackgroundColor=default;endArrow=none;endFill=0;" parent="oMa-YYFSlQReQpS9Pxsv-1" source="oMa-YYFSlQReQpS9Pxsv-4" target="tzZ_4P01xmAcH8LYmq8I-19" edge="1">
          <mxGeometry relative="1" as="geometry" />
        </mxCell>
        <mxCell id="oMa-YYFSlQReQpS9Pxsv-8" value="Mulpliticity" parent="0" />
        <mxCell id="oMa-YYFSlQReQpS9Pxsv-10" value="1" style="edgeLabel;html=1;align=center;verticalAlign=middle;resizable=0;points=[];fontFamily=Helvetica;fontSize=15;fontColor=default;labelBackgroundColor=default;" parent="oMa-YYFSlQReQpS9Pxsv-8" vertex="1" connectable="0">
          <mxGeometry x="0.32341977467649485" y="259.71236071653766" as="geometry" />
        </mxCell>
        <mxCell id="oMa-YYFSlQReQpS9Pxsv-12" value="1" style="edgeLabel;html=1;align=center;verticalAlign=middle;resizable=0;points=[];fontFamily=Helvetica;fontSize=15;fontColor=default;labelBackgroundColor=default;" parent="oMa-YYFSlQReQpS9Pxsv-8" vertex="1" connectable="0">
          <mxGeometry x="-10.126167475566035" y="292.03788093170465" as="geometry" />
        </mxCell>
        <mxCell id="oMa-YYFSlQReQpS9Pxsv-14" value="1" style="edgeLabel;html=1;align=center;verticalAlign=middle;resizable=0;points=[];fontFamily=Helvetica;fontSize=15;fontColor=default;labelBackgroundColor=default;" parent="oMa-YYFSlQReQpS9Pxsv-8" vertex="1" connectable="0">
          <mxGeometry x="116.94047003124479" y="213.41605380225496" as="geometry" />
        </mxCell>
        <mxCell id="oMa-YYFSlQReQpS9Pxsv-16" value="1" style="edgeLabel;html=1;align=center;verticalAlign=middle;resizable=0;points=[];fontFamily=Helvetica;fontSize=15;fontColor=default;labelBackgroundColor=default;" parent="oMa-YYFSlQReQpS9Pxsv-8" vertex="1" connectable="0">
          <mxGeometry x="699.2887982713632" y="233.84803299304292" as="geometry" />
        </mxCell>
        <mxCell id="oMa-YYFSlQReQpS9Pxsv-18" value="0" style="edgeLabel;html=1;align=center;verticalAlign=middle;resizable=0;points=[];fontFamily=Helvetica;fontSize=15;fontColor=default;labelBackgroundColor=default;" parent="oMa-YYFSlQReQpS9Pxsv-8" vertex="1" connectable="0">
          <mxGeometry x="627.6045016287258" y="245.6386785565835" as="geometry" />
        </mxCell>
        <mxCell id="oMa-YYFSlQReQpS9Pxsv-21" value="1" style="edgeLabel;html=1;align=center;verticalAlign=middle;resizable=0;points=[];fontFamily=Helvetica;fontSize=15;fontColor=default;labelBackgroundColor=default;" parent="oMa-YYFSlQReQpS9Pxsv-8" vertex="1" connectable="0">
          <mxGeometry x="752.5156661964807" y="93.64056468403999" as="geometry" />
        </mxCell>
        <mxCell id="oMa-YYFSlQReQpS9Pxsv-22" value="1" style="edgeLabel;html=1;align=center;verticalAlign=middle;resizable=0;points=[];fontFamily=Helvetica;fontSize=15;fontColor=default;labelBackgroundColor=default;" parent="oMa-YYFSlQReQpS9Pxsv-8" vertex="1" connectable="0">
          <mxGeometry x="756.0012901324741" y="99.00108839595426" as="geometry">
            <mxPoint x="1" y="13" as="offset" />
          </mxGeometry>
        </mxCell>
        <mxCell id="oMa-YYFSlQReQpS9Pxsv-26" value="0" style="edgeLabel;html=1;align=center;verticalAlign=middle;resizable=0;points=[];fontFamily=Helvetica;fontSize=15;fontColor=default;labelBackgroundColor=default;" parent="oMa-YYFSlQReQpS9Pxsv-8" vertex="1" connectable="0">
          <mxGeometry x="551.7648015205702" y="56.08663769276427" as="geometry" />
        </mxCell>
        <mxCell id="oMa-YYFSlQReQpS9Pxsv-27" value="0" style="edgeLabel;html=1;align=center;verticalAlign=middle;resizable=0;points=[];fontFamily=Helvetica;fontSize=15;fontColor=default;labelBackgroundColor=default;" parent="oMa-YYFSlQReQpS9Pxsv-8" vertex="1" connectable="0">
          <mxGeometry x="625.6761021298526" y="145.10796595671593" as="geometry" />
        </mxCell>
        <mxCell id="oMa-YYFSlQReQpS9Pxsv-30" value="1" style="edgeLabel;html=1;align=center;verticalAlign=middle;resizable=0;points=[];fontFamily=Helvetica;fontSize=15;fontColor=default;labelBackgroundColor=default;" parent="oMa-YYFSlQReQpS9Pxsv-8" vertex="1" connectable="0">
          <mxGeometry x="719.0020216260975" y="366.11594126797877" as="geometry" />
        </mxCell>
        <mxCell id="oMa-YYFSlQReQpS9Pxsv-31" value="1" style="edgeLabel;html=1;align=center;verticalAlign=middle;resizable=0;points=[];fontFamily=Helvetica;fontSize=15;fontColor=default;labelBackgroundColor=default;" parent="oMa-YYFSlQReQpS9Pxsv-8" vertex="1" connectable="0">
          <mxGeometry x="493.3998792282423" y="365.9333337709122" as="geometry" />
        </mxCell>
        <mxCell id="oMa-YYFSlQReQpS9Pxsv-33" value="1" style="edgeLabel;html=1;align=center;verticalAlign=middle;resizable=0;points=[];fontFamily=Helvetica;fontSize=15;fontColor=default;labelBackgroundColor=default;" parent="oMa-YYFSlQReQpS9Pxsv-8" vertex="1" connectable="0">
          <mxGeometry x="138.00172574218888" y="621.0535785255602" as="geometry" />
        </mxCell>
        <mxCell id="oMa-YYFSlQReQpS9Pxsv-36" value="1" style="edgeLabel;html=1;align=center;verticalAlign=middle;resizable=0;points=[];fontFamily=Helvetica;fontSize=15;fontColor=default;labelBackgroundColor=default;" parent="oMa-YYFSlQReQpS9Pxsv-8" vertex="1" connectable="0">
          <mxGeometry x="606.1700000000001" y="642" as="geometry" />
        </mxCell>
        <mxCell id="oMa-YYFSlQReQpS9Pxsv-37" value="1" style="edgeLabel;html=1;align=center;verticalAlign=middle;resizable=0;points=[];fontFamily=Helvetica;fontSize=15;fontColor=default;labelBackgroundColor=default;" parent="oMa-YYFSlQReQpS9Pxsv-8" vertex="1" connectable="0">
          <mxGeometry x="729.3700000000001" y="644" as="geometry" />
        </mxCell>
        <mxCell id="oMa-YYFSlQReQpS9Pxsv-43" value="&lt;div&gt;&lt;b style=&quot;color: rgb(12, 13, 14); font-family: -apple-system, BlinkMacSystemFont, &amp;quot;Segoe UI Adjusted&amp;quot;, &amp;quot;Segoe UI&amp;quot;, &amp;quot;Liberation Sans&amp;quot;, sans-serif; font-size: 15px;&quot;&gt;Multiplicity&lt;/b&gt;&lt;font face=&quot;-apple-system, BlinkMacSystemFont, Segoe UI Adjusted, Segoe UI, Liberation Sans, sans-serif&quot; color=&quot;#0c0d0e&quot;&gt;&lt;span style=&quot;font-size: 15px;&quot;&gt;&lt;br&gt;&lt;/span&gt;&lt;/font&gt;&lt;/div&gt;&lt;font face=&quot;-apple-system, BlinkMacSystemFont, Segoe UI Adjusted, Segoe UI, Liberation Sans, sans-serif&quot; color=&quot;#0c0d0e&quot;&gt;&lt;span style=&quot;font-size: 15px;&quot;&gt;1 near actor and 0 near use case means the actor may or may or not perform the use case&lt;/span&gt;&lt;/font&gt;" style="shape=note;whiteSpace=wrap;html=1;backgroundOutline=1;fontColor=#000000;darkOpacity=0.05;fillColor=#FFF9B2;strokeColor=none;fillStyle=solid;direction=west;gradientDirection=north;gradientColor=#FFF2A1;shadow=1;size=20;pointerEvents=1;align=left;verticalAlign=top;" parent="oMa-YYFSlQReQpS9Pxsv-8" vertex="1">
          <mxGeometry x="599" y="-79" width="197" height="121" as="geometry" />
        </mxCell>
      </root>
    </mxGraphModel>
  </diagram>
  <diagram id="iCeOel62f_GUXJGLYvrv" name="Checkout Example">
    <mxGraphModel dx="1834" dy="1236" grid="0" gridSize="10" guides="1" tooltips="1" connect="1" arrows="1" fold="1" page="0" pageScale="1" pageWidth="850" pageHeight="1100" math="0" shadow="0">
      <root>
        <mxCell id="0" />
        <mxCell id="1" parent="0" />
        <mxCell id="a-Nbgqb5b6VIMc6L13VT-6" value="&lt;p style=&quot;margin:0px;margin-top:4px;margin-left:10px;text-align:left;&quot;&gt;&lt;b&gt;Checkout&lt;/b&gt;&lt;/p&gt;" style="html=1;shape=mxgraph.sysml.package;align=left;spacingLeft=5;verticalAlign=top;spacingTop=-3;labelX=135;html=1;overflow=fill;" parent="1" vertex="1">
          <mxGeometry x="69" y="-23" width="617" height="558" as="geometry" />
        </mxCell>
        <mxCell id="DpRv2lbLISAu3Ojw-3Ug-2" value="Scan Items" style="shape=ellipse;html=1;strokeWidth=3;fontStyle=1;whiteSpace=wrap;align=center;perimeter=ellipsePerimeter;" parent="1" vertex="1">
          <mxGeometry x="358" y="-1" width="120" height="60" as="geometry" />
        </mxCell>
        <mxCell id="DpRv2lbLISAu3Ojw-3Ug-3" value="Calculate Total" style="shape=ellipse;html=1;strokeWidth=3;fontStyle=1;whiteSpace=wrap;align=center;perimeter=ellipsePerimeter;" parent="1" vertex="1">
          <mxGeometry x="354" y="95" width="120" height="60" as="geometry" />
        </mxCell>
        <mxCell id="DpRv2lbLISAu3Ojw-3Ug-4" value="Payment" style="shape=ellipse;html=1;strokeWidth=3;fontStyle=1;whiteSpace=wrap;align=center;perimeter=ellipsePerimeter;" parent="1" vertex="1">
          <mxGeometry x="354" y="200" width="120" height="60" as="geometry" />
        </mxCell>
        <mxCell id="DpRv2lbLISAu3Ojw-3Ug-5" value="&amp;lt;&amp;lt;include&amp;gt;&amp;gt;" style="edgeStyle=none;html=1;endArrow=open;verticalAlign=bottom;dashed=1;labelBackgroundColor=none;rounded=0;entryX=0;entryY=0.5;entryDx=0;entryDy=0;exitX=1;exitY=0.5;exitDx=0;exitDy=0;exitPerimeter=0;" parent="1" source="a-Nbgqb5b6VIMc6L13VT-1" target="DpRv2lbLISAu3Ojw-3Ug-2" edge="1">
          <mxGeometry width="160" relative="1" as="geometry">
            <mxPoint x="253.9999999999999" y="324" as="sourcePoint" />
            <mxPoint x="425" y="356" as="targetPoint" />
          </mxGeometry>
        </mxCell>
        <mxCell id="DpRv2lbLISAu3Ojw-3Ug-6" value="&amp;lt;&amp;lt;include&amp;gt;&amp;gt;" style="edgeStyle=none;html=1;endArrow=open;verticalAlign=bottom;dashed=1;labelBackgroundColor=none;rounded=0;entryX=0;entryY=0.5;entryDx=0;entryDy=0;exitX=1;exitY=0.5;exitDx=0;exitDy=0;exitPerimeter=0;" parent="1" source="a-Nbgqb5b6VIMc6L13VT-1" target="DpRv2lbLISAu3Ojw-3Ug-3" edge="1">
          <mxGeometry width="160" relative="1" as="geometry">
            <mxPoint x="253.9999999999999" y="324" as="sourcePoint" />
            <mxPoint x="388" y="231" as="targetPoint" />
          </mxGeometry>
        </mxCell>
        <mxCell id="DpRv2lbLISAu3Ojw-3Ug-7" value="&amp;lt;&amp;lt;include&amp;gt;&amp;gt;" style="edgeStyle=none;html=1;endArrow=open;verticalAlign=bottom;dashed=1;labelBackgroundColor=none;rounded=0;entryX=0;entryY=0.5;entryDx=0;entryDy=0;exitX=1;exitY=0.5;exitDx=0;exitDy=0;exitPerimeter=0;" parent="1" source="a-Nbgqb5b6VIMc6L13VT-1" target="DpRv2lbLISAu3Ojw-3Ug-4" edge="1">
          <mxGeometry width="160" relative="1" as="geometry">
            <mxPoint x="253.9999999999999" y="324" as="sourcePoint" />
            <mxPoint x="398" y="241" as="targetPoint" />
          </mxGeometry>
        </mxCell>
        <mxCell id="DpRv2lbLISAu3Ojw-3Ug-8" value="Payment by cash" style="shape=ellipse;html=1;strokeWidth=3;fontStyle=1;whiteSpace=wrap;align=center;perimeter=ellipsePerimeter;" parent="1" vertex="1">
          <mxGeometry x="517" y="140" width="120" height="60" as="geometry" />
        </mxCell>
        <mxCell id="DpRv2lbLISAu3Ojw-3Ug-9" value="Payment by card" style="shape=ellipse;html=1;strokeWidth=3;fontStyle=1;whiteSpace=wrap;align=center;perimeter=ellipsePerimeter;" parent="1" vertex="1">
          <mxGeometry x="512" y="236" width="120" height="60" as="geometry" />
        </mxCell>
        <mxCell id="DpRv2lbLISAu3Ojw-3Ug-10" value="" style="edgeStyle=none;html=1;endArrow=block;endFill=0;endSize=12;verticalAlign=bottom;rounded=0;exitX=0;exitY=0.5;exitDx=0;exitDy=0;" parent="1" source="DpRv2lbLISAu3Ojw-3Ug-8" target="DpRv2lbLISAu3Ojw-3Ug-4" edge="1">
          <mxGeometry width="160" relative="1" as="geometry">
            <mxPoint x="460" y="157" as="sourcePoint" />
            <mxPoint x="620" y="157" as="targetPoint" />
          </mxGeometry>
        </mxCell>
        <mxCell id="DpRv2lbLISAu3Ojw-3Ug-11" value="" style="edgeStyle=none;html=1;endArrow=block;endFill=0;endSize=12;verticalAlign=bottom;rounded=0;entryX=1;entryY=1;entryDx=0;entryDy=0;exitX=0;exitY=0.5;exitDx=0;exitDy=0;" parent="1" source="DpRv2lbLISAu3Ojw-3Ug-9" target="DpRv2lbLISAu3Ojw-3Ug-4" edge="1">
          <mxGeometry width="160" relative="1" as="geometry">
            <mxPoint x="553" y="183" as="sourcePoint" />
            <mxPoint x="484" y="240" as="targetPoint" />
          </mxGeometry>
        </mxCell>
        <mxCell id="DpRv2lbLISAu3Ojw-3Ug-12" value="Condition: {click send receipt}&#xa;extension point: send_receipt" style="shape=note;size=15;spacingLeft=5;align=left;whiteSpace=wrap;" parent="1" vertex="1">
          <mxGeometry x="303" y="322" width="230" height="40" as="geometry" />
        </mxCell>
        <mxCell id="DpRv2lbLISAu3Ojw-3Ug-13" value="&amp;lt;&amp;lt;extend&amp;gt;&amp;gt;" style="align=right;html=1;verticalAlign=bottom;rounded=0;labelBackgroundColor=none;endArrow=open;endSize=12;dashed=1;entryX=0.855;entryY=0.855;entryDx=0;entryDy=0;entryPerimeter=0;exitX=0;exitY=0.5;exitDx=0;exitDy=0;" parent="1" source="a-Nbgqb5b6VIMc6L13VT-3" target="a-Nbgqb5b6VIMc6L13VT-1" edge="1">
          <mxGeometry relative="1" as="geometry">
            <mxPoint x="328" y="110" as="targetPoint" />
            <mxPoint x="488" y="110" as="sourcePoint" />
          </mxGeometry>
        </mxCell>
        <mxCell id="DpRv2lbLISAu3Ojw-3Ug-14" value="" style="edgeStyle=none;html=1;endArrow=none;rounded=0;labelBackgroundColor=none;dashed=1;exitX=0.5;exitY=1;" parent="1" source="DpRv2lbLISAu3Ojw-3Ug-12" edge="1">
          <mxGeometry relative="1" as="geometry">
            <mxPoint x="351" y="401" as="targetPoint" />
          </mxGeometry>
        </mxCell>
        <mxCell id="a-Nbgqb5b6VIMc6L13VT-1" value="&lt;br&gt;extension points&lt;br&gt;send_receipt" style="html=1;shape=mxgraph.sysml.useCaseExtPt;whiteSpace=wrap;align=center;" parent="1" vertex="1">
          <mxGeometry x="89" y="193" width="160" height="80" as="geometry" />
        </mxCell>
        <mxCell id="a-Nbgqb5b6VIMc6L13VT-2" value="Checkout" style="resizable=0;html=1;verticalAlign=middle;align=center;labelBackgroundColor=none;fontStyle=1;" parent="a-Nbgqb5b6VIMc6L13VT-1" connectable="0" vertex="1">
          <mxGeometry x="80" y="17" as="geometry" />
        </mxCell>
        <mxCell id="a-Nbgqb5b6VIMc6L13VT-3" value="Send receipt" style="shape=ellipse;html=1;strokeWidth=3;fontStyle=1;whiteSpace=wrap;align=center;perimeter=ellipsePerimeter;" parent="1" vertex="1">
          <mxGeometry x="409" y="418" width="120" height="60" as="geometry" />
        </mxCell>
        <mxCell id="a-Nbgqb5b6VIMc6L13VT-8" value="Customer" style="shape=umlActor;verticalLabelPosition=bottom;verticalAlign=top;html=1;outlineConnect=0;" parent="1" vertex="1">
          <mxGeometry x="-16" y="195" width="30" height="60" as="geometry" />
        </mxCell>
        <mxCell id="a-Nbgqb5b6VIMc6L13VT-9" style="rounded=0;orthogonalLoop=1;jettySize=auto;html=1;exitX=1;exitY=0.3333333333333333;exitDx=0;exitDy=0;exitPerimeter=0;entryX=0;entryY=0.5;entryDx=0;entryDy=0;entryPerimeter=0;endArrow=none;endFill=0;" parent="1" source="a-Nbgqb5b6VIMc6L13VT-8" target="a-Nbgqb5b6VIMc6L13VT-1" edge="1">
          <mxGeometry relative="1" as="geometry" />
        </mxCell>
      </root>
    </mxGraphModel>
  </diagram>
  <diagram id="4UmcGA0gyAodjzTWDnME" name="ATM Example">
    <mxGraphModel dx="1595" dy="697" grid="0" gridSize="10" guides="1" tooltips="1" connect="1" arrows="1" fold="1" page="0" pageScale="1" pageWidth="827" pageHeight="1169" math="0" shadow="0">
      <root>
        <mxCell id="0" />
        <mxCell id="1" parent="0" />
        <mxCell id="PrGd3PqDRQAQLGM5weV0-1" value="&lt;div&gt;Use Case Diagram Scenario: ATM Withdrawal&lt;/div&gt;&lt;div&gt;&lt;br&gt;&lt;/div&gt;&lt;div&gt;Actors:&lt;/div&gt;&lt;div&gt;&lt;span style=&quot;white-space: normal;&quot;&gt;&lt;span style=&quot;white-space:pre&quot;&gt;&#x9;&lt;/span&gt;Customer: A person who uses the ATM to withdraw cash.&lt;/span&gt;&lt;/div&gt;&lt;div&gt;&lt;span style=&quot;white-space: normal;&quot;&gt;&lt;span style=&quot;white-space:pre&quot;&gt;&#x9;&lt;/span&gt;Bank System: The backend system that processes the transaction.&lt;/span&gt;&lt;/div&gt;&lt;div&gt;&lt;br&gt;&lt;/div&gt;&lt;div&gt;Use Cases:&lt;/div&gt;&lt;div&gt;&lt;span style=&quot;white-space: normal;&quot;&gt;&lt;span style=&quot;white-space:pre&quot;&gt;&#x9;&lt;/span&gt;Authenticate User: The ATM verifies the customer&#39;s identity.&lt;/span&gt;&lt;/div&gt;&lt;div&gt;&lt;span style=&quot;white-space: normal;&quot;&gt;&lt;span style=&quot;white-space:pre&quot;&gt;&#x9;&lt;/span&gt;Select Transaction: The customer selects the type of transaction (e.g., withdrawal).&lt;/span&gt;&lt;/div&gt;&lt;div&gt;&lt;span style=&quot;white-space: normal;&quot;&gt;&lt;span style=&quot;white-space:pre&quot;&gt;&#x9;&lt;/span&gt;Enter Amount: The customer enters the amount to withdraw.&lt;/span&gt;&lt;/div&gt;&lt;div&gt;&lt;span style=&quot;white-space: normal;&quot;&gt;&lt;span style=&quot;white-space:pre&quot;&gt;&#x9;&lt;/span&gt;Dispense Cash: The ATM dispenses the requested amount of cash.&lt;/span&gt;&lt;/div&gt;&lt;div&gt;&lt;span style=&quot;white-space: normal;&quot;&gt;&lt;span style=&quot;white-space:pre&quot;&gt;&#x9;&lt;/span&gt;Print Receipt: The ATM prints a receipt for the transaction.&lt;/span&gt;&lt;/div&gt;&lt;div&gt;&lt;br&gt;&lt;/div&gt;&lt;div&gt;Scenario Text:&lt;/div&gt;&lt;div&gt;&lt;span style=&quot;white-space: normal;&quot;&gt;&lt;span style=&quot;white-space:pre&quot;&gt;&#x9;&lt;/span&gt;Authenticate User:&lt;/span&gt;&lt;/div&gt;&lt;div&gt;&lt;span style=&quot;white-space: normal;&quot;&gt;&lt;span style=&quot;white-space:pre&quot;&gt;&#x9;&#x9;&lt;/span&gt;The customer inserts their ATM card into the machine.&lt;/span&gt;&lt;/div&gt;&lt;div&gt;&lt;span style=&quot;white-space: normal;&quot;&gt;&lt;span style=&quot;white-space:pre&quot;&gt;&#x9;&#x9;&lt;/span&gt;The ATM prompts the customer to enter their PIN.&lt;/span&gt;&lt;/div&gt;&lt;div&gt;&lt;span style=&quot;white-space: normal;&quot;&gt;&lt;span style=&quot;white-space:pre&quot;&gt;&#x9;&#x9;&lt;/span&gt;The customer enters their PIN.&lt;/span&gt;&lt;/div&gt;&lt;div&gt;&lt;span style=&quot;white-space: normal;&quot;&gt;&lt;span style=&quot;white-space:pre&quot;&gt;&#x9;&#x9;&lt;/span&gt;The ATM verifies the PIN with the bank system.&lt;/span&gt;&lt;/div&gt;&lt;div&gt;&lt;span style=&quot;white-space: normal;&quot;&gt;&lt;span style=&quot;white-space:pre&quot;&gt;&#x9;&#x9;&lt;/span&gt;If the PIN is correct, the ATM proceeds to the next step. If not, it prompts the customer to re-enter the PIN.&lt;/span&gt;&lt;/div&gt;&lt;div&gt;&lt;br&gt;&lt;/div&gt;&lt;div&gt;&lt;span style=&quot;white-space: normal;&quot;&gt;&lt;span style=&quot;white-space:pre&quot;&gt;&#x9;&lt;/span&gt;Select Transaction:&lt;/span&gt;&lt;/div&gt;&lt;div&gt;&lt;span style=&quot;white-space: normal;&quot;&gt;&lt;span style=&quot;white-space:pre&quot;&gt;&#x9;&#x9;&lt;/span&gt;The ATM displays a menu of transaction options.&lt;/span&gt;&lt;/div&gt;&lt;div&gt;&lt;span style=&quot;white-space: normal;&quot;&gt;&lt;span style=&quot;white-space:pre&quot;&gt;&#x9;&#x9;&lt;/span&gt;The customer selects &quot;Withdrawal&quot; from the menu.&lt;/span&gt;&lt;/div&gt;&lt;div&gt;&lt;br&gt;&lt;/div&gt;&lt;div&gt;&lt;span style=&quot;white-space: normal;&quot;&gt;&lt;span style=&quot;white-space:pre&quot;&gt;&#x9;&lt;/span&gt;Enter Amount:&lt;/span&gt;&lt;/div&gt;&lt;div&gt;&lt;span style=&quot;white-space: normal;&quot;&gt;&lt;span style=&quot;white-space:pre&quot;&gt;&#x9;&#x9;&lt;/span&gt;The ATM prompts the customer to enter the amount to withdraw.&lt;/span&gt;&lt;/div&gt;&lt;div&gt;&lt;span style=&quot;white-space: normal;&quot;&gt;&lt;span style=&quot;white-space:pre&quot;&gt;&#x9;&#x9;&lt;/span&gt;The customer enters the desired amount.&lt;/span&gt;&lt;/div&gt;&lt;div&gt;&lt;span style=&quot;white-space: normal;&quot;&gt;&lt;span style=&quot;white-space:pre&quot;&gt;&#x9;&#x9;&lt;/span&gt;The ATM verifies that the amount is within the customer&#39;s account balance and daily withdrawal limit.&lt;/span&gt;&lt;/div&gt;&lt;div&gt;&lt;br&gt;&lt;/div&gt;&lt;div&gt;&lt;span style=&quot;white-space: normal;&quot;&gt;&lt;span style=&quot;white-space:pre&quot;&gt;&#x9;&lt;/span&gt;Dispense Cash:&lt;/span&gt;&lt;/div&gt;&lt;div&gt;&lt;span style=&quot;white-space: normal;&quot;&gt;&lt;span style=&quot;white-space:pre&quot;&gt;&#x9;&#x9;&lt;/span&gt;The ATM dispenses the requested amount of cash.&lt;/span&gt;&lt;/div&gt;&lt;div&gt;&lt;span style=&quot;white-space: normal;&quot;&gt;&lt;span style=&quot;white-space:pre&quot;&gt;&#x9;&#x9;&lt;/span&gt;The ATM updates the customer&#39;s account balance in the bank system.&lt;/span&gt;&lt;/div&gt;&lt;div&gt;&lt;br&gt;&lt;/div&gt;&lt;div&gt;&lt;span style=&quot;white-space: normal;&quot;&gt;&lt;span style=&quot;white-space:pre&quot;&gt;&#x9;&lt;/span&gt;Print Receipt:&lt;/span&gt;&lt;/div&gt;&lt;div&gt;&lt;span style=&quot;white-space: normal;&quot;&gt;&lt;span style=&quot;white-space:pre&quot;&gt;&#x9;&#x9;&lt;/span&gt;The ATM prints a receipt showing the transaction details.&lt;/span&gt;&lt;/div&gt;&lt;div&gt;&lt;span style=&quot;white-space: normal;&quot;&gt;&lt;span style=&quot;white-space:pre&quot;&gt;&#x9;&#x9;&lt;/span&gt;The customer takes the receipt and the cash.&lt;/span&gt;&lt;/div&gt;" style="shape=note;whiteSpace=wrap;html=1;backgroundOutline=1;fontColor=#000000;darkOpacity=0.05;fillColor=#FFF9B2;strokeColor=none;fillStyle=solid;direction=west;gradientDirection=north;gradientColor=#FFF2A1;shadow=1;size=20;pointerEvents=1;align=left;verticalAlign=top;" vertex="1" parent="1">
          <mxGeometry x="584" y="11" width="650" height="600" as="geometry" />
        </mxCell>
        <mxCell id="HuCr1KhMSFmNGcazuChJ-1" value="&lt;p style=&quot;margin:0px;margin-top:4px;margin-left:10px;text-align:left;&quot;&gt;&lt;span style=&quot;text-wrap: wrap;&quot;&gt;ATM Withdrawal&lt;/span&gt;&lt;br&gt;&lt;/p&gt;" style="html=1;shape=mxgraph.sysml.package;align=left;spacingLeft=5;verticalAlign=top;spacingTop=-3;labelX=135;html=1;overflow=fill;" vertex="1" parent="1">
          <mxGeometry x="100" y="17" width="313" height="495" as="geometry" />
        </mxCell>
        <mxCell id="n83OXW29bGCetT0M2wpq-26" style="rounded=0;orthogonalLoop=1;jettySize=auto;html=1;exitX=0;exitY=0.5;exitDx=0;exitDy=0;endArrow=none;endFill=0;" edge="1" parent="1" source="HuCr1KhMSFmNGcazuChJ-2" target="HuCr1KhMSFmNGcazuChJ-18">
          <mxGeometry relative="1" as="geometry" />
        </mxCell>
        <mxCell id="HuCr1KhMSFmNGcazuChJ-2" value="Enter Amount" style="shape=ellipse;html=1;strokeWidth=3;fontStyle=1;whiteSpace=wrap;align=center;perimeter=ellipsePerimeter;" vertex="1" parent="1">
          <mxGeometry x="188" y="226" width="120" height="60" as="geometry" />
        </mxCell>
        <mxCell id="HuCr1KhMSFmNGcazuChJ-3" value="Select Transaction" style="shape=ellipse;html=1;strokeWidth=3;fontStyle=1;whiteSpace=wrap;align=center;perimeter=ellipsePerimeter;" vertex="1" parent="1">
          <mxGeometry x="191" y="147" width="120" height="60" as="geometry" />
        </mxCell>
        <mxCell id="HuCr1KhMSFmNGcazuChJ-4" value="&lt;span style=&quot;text-align: left;&quot;&gt;Authenticate User&lt;/span&gt;" style="shape=ellipse;html=1;strokeWidth=3;fontStyle=1;whiteSpace=wrap;align=center;perimeter=ellipsePerimeter;" vertex="1" parent="1">
          <mxGeometry x="188" y="58" width="120" height="60" as="geometry" />
        </mxCell>
        <mxCell id="HuCr1KhMSFmNGcazuChJ-17" value="Dispense Cash" style="shape=ellipse;html=1;strokeWidth=3;fontStyle=1;whiteSpace=wrap;align=center;perimeter=ellipsePerimeter;" vertex="1" parent="1">
          <mxGeometry x="188" y="299" width="120" height="60" as="geometry" />
        </mxCell>
        <mxCell id="HuCr1KhMSFmNGcazuChJ-18" value="Customer" style="shape=umlActor;verticalLabelPosition=bottom;verticalAlign=top;html=1;outlineConnect=0;" vertex="1" parent="1">
          <mxGeometry x="-16" y="195" width="30" height="60" as="geometry" />
        </mxCell>
        <mxCell id="HuCr1KhMSFmNGcazuChJ-19" style="rounded=0;orthogonalLoop=1;jettySize=auto;html=1;exitX=1;exitY=0.3333333333333333;exitDx=0;exitDy=0;exitPerimeter=0;entryX=0;entryY=0.5;entryDx=0;entryDy=0;endArrow=none;endFill=0;" edge="1" parent="1" source="HuCr1KhMSFmNGcazuChJ-18" target="HuCr1KhMSFmNGcazuChJ-4">
          <mxGeometry relative="1" as="geometry">
            <mxPoint x="89" y="233" as="targetPoint" />
          </mxGeometry>
        </mxCell>
        <mxCell id="G9ag0ksEjzasW8oIFBLs-1" value="Bank System" style="shape=umlActor;verticalLabelPosition=bottom;verticalAlign=top;html=1;outlineConnect=0;" vertex="1" parent="1">
          <mxGeometry x="474" y="202" width="30" height="60" as="geometry" />
        </mxCell>
        <mxCell id="G9ag0ksEjzasW8oIFBLs-3" value="Print Receipt" style="shape=ellipse;html=1;strokeWidth=3;fontStyle=1;whiteSpace=wrap;align=center;perimeter=ellipsePerimeter;" vertex="1" parent="1">
          <mxGeometry x="185" y="384" width="120" height="60" as="geometry" />
        </mxCell>
        <mxCell id="n83OXW29bGCetT0M2wpq-3" style="rounded=0;orthogonalLoop=1;jettySize=auto;html=1;exitX=0.5;exitY=0.5;exitDx=0;exitDy=0;exitPerimeter=0;entryX=0;entryY=0.5;entryDx=0;entryDy=0;endArrow=none;endFill=0;" edge="1" parent="1" source="HuCr1KhMSFmNGcazuChJ-18" target="HuCr1KhMSFmNGcazuChJ-3">
          <mxGeometry relative="1" as="geometry">
            <mxPoint x="24" y="225" as="sourcePoint" />
            <mxPoint x="198" y="116" as="targetPoint" />
          </mxGeometry>
        </mxCell>
        <mxCell id="n83OXW29bGCetT0M2wpq-4" style="rounded=0;orthogonalLoop=1;jettySize=auto;html=1;entryX=0;entryY=0.5;entryDx=0;entryDy=0;endArrow=none;endFill=0;" edge="1" parent="1" source="HuCr1KhMSFmNGcazuChJ-18" target="G9ag0ksEjzasW8oIFBLs-3">
          <mxGeometry relative="1" as="geometry">
            <mxPoint x="9" y="235" as="sourcePoint" />
            <mxPoint x="198" y="239" as="targetPoint" />
          </mxGeometry>
        </mxCell>
        <mxCell id="n83OXW29bGCetT0M2wpq-5" style="rounded=0;orthogonalLoop=1;jettySize=auto;html=1;entryX=0;entryY=0.5;entryDx=0;entryDy=0;endArrow=none;endFill=0;" edge="1" parent="1" source="HuCr1KhMSFmNGcazuChJ-18" target="HuCr1KhMSFmNGcazuChJ-17">
          <mxGeometry relative="1" as="geometry">
            <mxPoint x="24" y="246" as="sourcePoint" />
            <mxPoint x="198" y="372" as="targetPoint" />
          </mxGeometry>
        </mxCell>
        <mxCell id="n83OXW29bGCetT0M2wpq-6" style="rounded=0;orthogonalLoop=1;jettySize=auto;html=1;exitX=1;exitY=0.5;exitDx=0;exitDy=0;entryX=0.5;entryY=0.5;entryDx=0;entryDy=0;entryPerimeter=0;endArrow=none;endFill=0;" edge="1" parent="1" source="HuCr1KhMSFmNGcazuChJ-17" target="G9ag0ksEjzasW8oIFBLs-1">
          <mxGeometry relative="1" as="geometry" />
        </mxCell>
      </root>
    </mxGraphModel>
  </diagram>
</mxfile>
